<svg xmlns="http://www.w3.org/2000/svg" viewBox="0 0 500 500"><g id="freepik--Plant--inject-5"><g id="freepik--Plants--inject-5"><path d="M480.14,229.89c-2.1,3.68-5.24,8.75-8.19,14.23-4.42,8.21-8.41,17.33-7.81,24.08l0,.68h0l-.52,10.35-.07,1.41-2.45-1.41-6-3.48a89,89,0,0,1-.14-33.82c2.36-13.55,11.84-28.42,19.83-29.23C482.19,212,485.38,220.71,480.14,229.89Z" style="fill:#8384F6"></path><path d="M480.14,229.89c-2.1,3.68-5.24,8.75-8.19,14.23-4.42,8.21-8.41,17.33-7.81,24.08l0,.68h0l-.52,10.35-.07,1.41-2.45-1.41-6-3.48a89,89,0,0,1-.14-33.82c2.36-13.55,11.84-28.42,19.83-29.23C482.19,212,485.38,220.71,480.14,229.89Z" style="fill:#fff;opacity:0.25"></path><path d="M458.37,275.37a.46.46,0,0,0,.29-.5c-3.12-25.08,7.2-48.19,17.7-56.56a.48.48,0,0,0,.07-.67.47.47,0,0,0-.67-.08c-10.67,8.5-21.22,32-18.05,57.43a.5.5,0,0,0,.54.42Z" style="fill:#fff"></path><path d="M489.33,245.76c-.83,4.86-9.65,10.58-15.49,18.44-5.26,7.11-7.56,14.32-7.37,18.15h0l-2.94-1.69-2.45-1.41c-1.34-17.79,4-29.36,10.88-35.12a19.45,19.45,0,0,1,5.26-3.19C485,237.83,490.32,239.93,489.33,245.76Z" style="fill:#8384F6"></path><path d="M489.33,245.76c-.83,4.86-9.65,10.58-15.49,18.44-5.26,7.11-7.56,14.32-7.37,18.15h0l-2.94-1.69-2.45-1.41c-1.34-17.79,4-29.36,10.88-35.12a19.45,19.45,0,0,1,5.26-3.19C485,237.83,490.32,239.93,489.33,245.76Z" style="fill:#fff;opacity:0.6000000000000001"></path><path d="M463.7,279.21a.47.47,0,0,0,.29-.43c.3-20.38,12-31.48,18.11-34.5a.48.48,0,0,0,.22-.64.47.47,0,0,0-.64-.22C474.9,246.76,463.34,258,463,278.76a.49.49,0,0,0,.48.49A.41.41,0,0,0,463.7,279.21Z" style="fill:#fff"></path></g></g><g id="freepik--Floor--inject-5"><g id="freepik--floor--inject-5"><path id="freepik--floor--inject-5" d="M77.67,241.92c-95.18,54.94-95.18,144,0,199s249.49,54.95,344.66,0,95.18-144,0-199S172.84,187,77.67,241.92Z" style="fill:#f0f0f0"></path><path d="M11.63,312.06,300.84,479c2.21-.27,4.42-.55,6.63-.86L13.13,308.23C12.6,309.51,12.1,310.78,11.63,312.06Zm149-101.58c-1.93.43-3.85.89-5.77,1.36L474.43,396.33c.82-1.1,1.6-2.21,2.36-3.33Z" style="fill:#fafafa"></path></g></g><g id="freepik--Shadow--inject-5"><path id="freepik--shadow--inject-5" d="M214.23,382.16a136.32,136.32,0,0,1,29.29,14.49c10.27,6.73,19.67,14.85,30.6,20.43,14.21,7.25,30.51,9.85,46.44,9.06,9-.44,18.83-2.39,24.58-9.36a10.39,10.39,0,0,0,2.67-6.27c0-3.39-2.36-6.3-4.83-8.63-13.17-12.45-31.51-17.55-49.19-21.52s-28.29-9-45.67-18c-7.43-3.85-14.76-8-22.26-11.62l-.18-.09a114.13,114.13,0,0,0-11.38-5.29,88.72,88.72,0,0,0-19.69-5,40.42,40.42,0,0,0-20,2.4,9,9,0,0,0-4.19,3,7.17,7.17,0,0,0-1,4.24,15.25,15.25,0,0,0,3.13,8.34,32.54,32.54,0,0,0,6.43,6.3C189.3,372.75,201.93,377.82,214.23,382.16Z" style="fill:#e0e0e0"></path></g><g id="freepik--Character--inject-5"><g id="freepik--character--inject-5"><g id="freepik--Bottom--inject-5"><path d="M300.75,184.8l-42.6,2.45s-3.23,13.85-4.45,24.35,4.8,20.86,4.8,20.86l2.65,17.93c-20.1,5.63-27.82,17.27-37.54,28.23-7.06,8-14.5,16-21.64,19.32-6.25,2.93-8.42,5,.77,12.87,5,4.25,9.66,3,9.66,3s39.53-22.67,58.51-32.95h0c14.37-6.83,16.64-7.16,21.34-20.84C302,231.77,302.2,195.45,300.75,184.8Z" style="fill:#f0997a"></path><path d="M257.79,233s-5.55-9.21-5.33-17.61,4.45-28.18,4.45-28.18l43.84-2.42c2.14,12.47.78,34.68-1.17,46.92-2.8,16.46-5.77,30.91-9.59,36.64s-4.44,6.44-20.72,14.39-41,22.52-41,22.52-4.64.61-9.64-6.81c-3.52-5.22-3.87-8.74-3.87-10.62,1.24-1.52,3.4-4.16,6.06-7.3,4.22-5,14.81-18,20.84-22.07a75.85,75.85,0,0,1,18.54-8.68Z" style="fill:#263238"></path><path d="M281.7,205.25c2.9,11.6-1.51,43.39-2,47-.64,4.5-6.17,5.58-12.58,6.83a62.33,62.33,0,0,0-8.67,2.12c-8.28,2.9-13.5,8.3-21.42,16.46l-1.84,1.9c-4.4,4.52-9.13,6.22-12.66,4.56a5.12,5.12,0,0,1-2.56-2.59c-.24.29-.48.56-.7.84a6.21,6.21,0,0,0,2.84,2.65,7.53,7.53,0,0,0,3.29.72c3.3,0,7-1.9,10.5-5.48l1.85-1.9c7.81-8.06,13-13.39,21-16.22A62.25,62.25,0,0,1,267.3,260c6.49-1.27,12.63-2.47,13.37-7.67.52-3.61,4.95-35.57,2-47.36-1.76-7-8.12-14.22-14.45-18.42l-1.72.1C273,190.63,279.92,198.14,281.7,205.25Z"></path><path d="M204.35,334.16c.77-5.58,4.8-12.27,6.79-14.94,3.59-4.79,6.9-6.17,5.16-7.56l-.78.43c-4.55.47-9.11-3.35-11-4s-5.49,6.7-7.57,12.5a39.35,39.35,0,0,0-2.2,14.57Z" style="fill:#8384F6"></path><g style="opacity:0.2"><path d="M204.35,334.16c.77-5.58,4.8-12.27,6.79-14.94,3.59-4.79,6.9-6.17,5.16-7.56l-.78.43c-4.55.47-9.11-3.35-11-4s-5.49,6.7-7.57,12.5a39.35,39.35,0,0,0-2.2,14.57Z"></path></g><path d="M197.33,356.84c-1,.9-2.34,1.07-7.22-2-4.32-2.73-7.12-9.1-9.09-15s-.21-13.25,1.63-17.45A35.4,35.4,0,0,0,184.93,308c-.2-3.14-.37-3.52.86-4.38,1.06-.75,2.34-1.56,2.34-1.56Z" style="fill:#ebebeb"></path><path d="M204.23,296.75c-2,1.58-2.63,2.45-3,5.39a8.18,8.18,0,0,0,1.16,5.27c1,1.56-2.62,6.5-4.78,12.88-1.51,4.43-2.9,12.48-2.31,13.42,1.75-1,6.46-.82,9.06,0a91.14,91.14,0,0,0-.3,12.62c.34,4.77,1.24,5.71-.35,7.45-.9,1-4.57,3.18-6.87,2.83-1.66-.25-7.83-3.74-11.85-12.49-3.75-8.15-1.55-13.75.38-20.77,1.62-5.86,2-9.71,1.85-12.37-.2-3.94-.48-6.68.88-8.9a13.29,13.29,0,0,1,5.39-3.56c3.62-1.35,6.56-2,9.33-3.34a3.81,3.81,0,0,1,3.46.21C205.8,295.78,204.89,296.35,204.23,296.75Z" style="fill:#8384F6"></path><path d="M201.56,352.18c-2.1.78-2.81,1-4.18,2.57a3.36,3.36,0,0,1-3.52,1.53c-2.92-.66-5.75-3.73-6.73-5s-4.69-7.19-5.8-11.32a22.43,22.43,0,0,1,.28-13.77c1.92-5.6,2.87-7.53,3.35-13.25s-.34-7.26,0-8.46a9.19,9.19,0,0,0-1.07.94c-.42,2.11.73,3.61-.46,11.27-.42,2.75-1.88,6.51-2.93,9.57a24.78,24.78,0,0,0-.17,14.42c1.43,5.3,4.55,12.13,10.79,15.85a11.63,11.63,0,0,0,10.86.3c1.15-.71,2.49-3.58,2.55-4.41C204.63,351.29,203.28,351.54,201.56,352.18Z" style="fill:#455a64"></path><path d="M194.65,334.82c3.63-1.76,9.46-.54,9.59.63l0,.6s.45.08.63-1.53c-.12-1.13-.78-1.92-4-2.32a14.14,14.14,0,0,0-6.28.58S194,334.4,194.65,334.82Z" style="fill:#37474f"></path><path d="M195.48,328.47c5.35-1.28,9.71.75,9.91,1.55l-.12.36s.62.09.79-1.51c-.09-.61-1-1.86-3.89-2.41a14.92,14.92,0,0,0-6.51.22S194.92,327.87,195.48,328.47Z" style="fill:#37474f"></path><path d="M196.56,323.23c6.52-2,10.75,1.25,10.88,2.07l-.18.35s.64.15,1-1.44c0-.61-.82-1.91-3.65-2.76a13.63,13.63,0,0,0-7.63.07S196.05,322.58,196.56,323.23Z" style="fill:#37474f"></path><path d="M198.38,317.09c6-1,11.78,2.53,11.91,3.35l-.2.3s.65.2,1-1.39c0-.61-1-1.44-3.65-2.76a14.17,14.17,0,0,0-8.39-1.25S197.87,316.44,198.38,317.09Z" style="fill:#37474f"></path><path d="M285,294.32s-17.89-20.08-30.67-34.68c-5.61-6.4-13.64-16.59-18-26.56-4.77-11-4.11-23.48-2.09-32,1.83-7.73,4.72-12.68,8-17.93l58.54,1.69a122.55,122.55,0,0,1-6.6,19c-3.92,8.32-12.22,13.35-12.22,13.35,12.31,23.24,34,54.73,35.11,65.44.54,5,.42,14.9-.3,26.39-1.8,26.38-2.21,54.11-2.18,60.07,0,5.65-.13,12.08,3.69,19.28,2.62,4.93,2.9,10.27,6.93,13.86S337.91,408,334.39,413s-11.14,5-17.88,4.13-12.33-10.57-14.43-16.39-7.78-9.7-11.62-12.94-2.89-7,.25-11.8,3.6-5.27,3.25-10.93c-.81-12.73-6.3-32.75-8.12-42.24C281.92,302.4,285,294.32,285,294.32Z" style="fill:#ffbda7"></path><path d="M244.22,248.71c-4.2-6-8.77-11.9-11.49-21.35-2.67-9.28-2.87-18.9-.61-26.9A48.08,48.08,0,0,1,242.21,182l58.54,2.76c2.58,20.93-15.53,33.76-15.53,33.76l7.28,12.85c8,13.17,20.9,37.63,23.66,44.78s2.69,7.66,1.63,25.4-3,55.88-3,55.88-2.44,3.18-11.77,3-10.49-3.32-10.49-3.32-2.87-14.3-4.12-20c-2.36-10.83-7.58-29.36-4.15-42.53C284.23,294.61,248.42,254.76,244.22,248.71Z" style="fill:#37474f"></path><path d="M294.92,317.16a93.22,93.22,0,0,1-.06-15.93c.34-5.87.62-10.51-1.58-13.73-1.57-2.3-4.55-6-8.32-10.72-10.31-12.86-25.9-32.31-31.08-45.91a99,99,0,0,1-4.67-17.18c-.92-4.62-1.65-8.27-3.35-11.43A24.1,24.1,0,0,0,235.42,192c-.16.29-.31.59-.45.89a23.13,23.13,0,0,1,10,9.8c1.63,3,2.35,6.62,3.25,11.15a101.43,101.43,0,0,0,4.71,17.35c5.24,13.74,20.89,33.26,31.24,46.18,3.76,4.68,6.73,8.38,8.27,10.65,2,2.94,1.76,7.21,1.41,13.12a95,95,0,0,0,.07,16.08c.78,7.43,1.13,15.52-2.17,19.15a6.19,6.19,0,0,1-2.74,1.72c.07.3.14.63.22,1a7,7,0,0,0,3.25-2C296.07,333.16,295.73,324.81,294.92,317.16Z" style="fill:#263238"></path><path d="M324.53,396.81c-2.34-2.9-6.82-11.82-7.52-14.11-1.26-4.13.48-6.21-2.09-7.81-2.73-1.19-7.84.69-11,2.86s2.26,11.31,3.88,14.26a46.82,46.82,0,0,0,9.43,12.1C319.63,401.66,322.37,399.65,324.53,396.81Z" style="fill:#8384F6"></path><path d="M324.53,396.81c-2.34-2.9-6.82-11.82-7.52-14.11-1.26-4.13.48-6.21-2.09-7.81-2.73-1.19-7.84.69-11,2.86s2.26,11.31,3.88,14.26a46.82,46.82,0,0,0,9.43,12.1C319.63,401.66,322.37,399.65,324.53,396.81Z" style="opacity:0.2"></path><path d="M334.19,417.28c-2,2.8-2.77,3.1-7.39,4-4.09.81-12.05-1.15-17-4S300,408.05,297.88,403A42.55,42.55,0,0,0,289,390.32c-2.28-2.28-2.63-2.17-2.71-4s.54-1.52.57-3C302.56,394.83,318.68,405.46,334.19,417.28Z" style="fill:#ebebeb"></path><path d="M294.05,367.18c-.08,3,.59,4.33,2.65,7.07,1.28,1.7,2.42,2.22,5.06,4s4.24,9.18,6.32,13.11c1.45,2.73,5.29,9.36,8.51,11.26a12.84,12.84,0,0,1,8.36-5.44,32.77,32.77,0,0,0,7.79,8.11c2.3,1.63,6.79,3.38,5.39,6.7-.79,1.88-1.36,3.65-5.36,5.58-2.91,1.41-11.27,2.07-17.14-.28-10.75-4.31-12.28-9.84-14.85-15.36-2.14-4.61-5.8-8.6-7.92-11-3.15-3.6-4.89-3.69-5.92-7.62-.63-2.44.29-4,1.3-6.54s3.07-6.72,4-9.36c.59-1.69.5-2.17,1.74-2.33Z" style="fill:#8384F6"></path><path d="M335.51,412.23a3.94,3.94,0,0,0-2.74,3.65c-.19,1.56.18,3-1.81,3.9-2.79,1.24-5.35,1.24-9.15.76a31.51,31.51,0,0,1-11.68-3.5A26.86,26.86,0,0,1,300,406.56a80.44,80.44,0,0,0-7.66-12.68c-2.57-3.21-4.14-3.71-6.18-6.61,0,.54-.08,1-.13,1.44,2.86,3.83,4.78,4.76,8.13,9.36,1.2,1.66,3.27,5.91,5.24,9.59a31,31,0,0,0,10.87,10.95c4.28,2.64,13.86,4.13,18.62,3.17,6.46-1.3,8.5-3.48,9.47-5.06.71-1.15.65-3.1.56-4.66C338.85,410.08,337.38,411.46,335.51,412.23Z" style="fill:#455a64"></path><path d="M316.29,403.31c1.49-2.41,6-5.81,9.21-5.33l.32.41c.3-.4.05-.76-.8-1.76-.61-.66-2.42-.49-4.89.73-1.75.86-4.39,2.57-5.37,4.53A2,2,0,0,0,316.29,403.31Z" style="fill:#37474f"></path><path d="M311.57,398.77c1.76-2.22,7.48-6.46,10.56-5.64l.26.45c.35-.36.15-.76-.58-1.83-.54-.74-2.56-.39-4.9.57-1.8.74-5.51,3-6.69,4.88A1.94,1.94,0,0,0,311.57,398.77Z" style="fill:#37474f"></path><path d="M308.46,393.38c1.86-2.13,8-6.18,11-5.21l.24.46c.36-.34.18-.74-.49-1.86-.51-.76-2.71-.43-5.09.42-1.84.66-5.65,2.77-6.92,4.56A1.94,1.94,0,0,0,308.46,393.38Z" style="fill:#37474f"></path><path d="M305.76,387.37c2-2,8.41-5.53,11.36-4.32l.19.47c.38-.31.26-.72-.33-1.88-.44-.8-2.66-.64-5.11,0-1.88.51-5.84,2.31-7.25,4A1.94,1.94,0,0,0,305.76,387.37Z" style="fill:#37474f"></path></g><g id="freepik--Top--inject-5"><path d="M288.76,104.26c6.84.37,14.57,1.08,23.88,7.41,6.95,4.72,39.36,27.48,44.45,31.76,0,0-6.3,20.38-6.73,20.28-5.54-1.32-52.11-25.66-52.11-25.66Z" style="fill:#ffbda7"></path><path d="M339.94,130.83c-2.26,9.6-2.08,16.44,1.39,21.66l7-15.64C345.79,135,342.93,133,339.94,130.83Z" style="fill:#f0997a"></path><path d="M340.66,138.27c2.86-13.91,7.45-22.1,8.57-32.53.25-2.33-1-3.62-2.23-5.7a73.87,73.87,0,0,1-3.46-7.94A67.52,67.52,0,0,0,340.17,85a2,2,0,0,1-.21-.49c-.18-.83.82-1.44,1.67-1.46a5.8,5.8,0,0,1,4.26,2.28,52.59,52.59,0,0,0,3.41,4c1.15-.69,0-7.89-.85-11.62a34.06,34.06,0,0,0-1.78-5.57c-.85-2-1.91-4-2.09-6.21a2.8,2.8,0,0,1,1.17-2.42.92.92,0,0,1,.47-.24c.32,0,.57.24.78.49,1.22,1.5.83,1.17,2.06,2.67a2.33,2.33,0,0,0,.57.56,3,3,0,0,0,1.19.33A6.23,6.23,0,0,1,355,70.13a7.39,7.39,0,0,0,1,1.54,4.66,4.66,0,0,0,1.66.88,6.5,6.5,0,0,1,3.41,2.14c.5.75.66,1.68,1.16,2.43A15,15,0,0,0,364.07,79a10.56,10.56,0,0,1,2.65,6.8A77.06,77.06,0,0,1,366.47,97a78.22,78.22,0,0,0-1,9c-.07,1.88-.28,3.67-.36,5.54-.33,7.4-.27,13.55-.61,21-.42,8.91-.39,10.86-.76,14.29-.45,4.09-2.13,11.55-8,16.21C349.81,167.83,337.1,155.59,340.66,138.27Z" style="fill:#ffbda7"></path><path d="M248.4,160.45c.54,3.19,1.81,6.76.44,10.7s-3.3,6.39-6.63,10.89c7.62,7.9,24.66,11.57,37.15,10.75,17.16-1.12,21.39-8,21.39-8l2.12-22.58Z" style="fill:#ffbda7"></path><path d="M313.35,132.67c-5.68-14.75-24.59-28.42-24.59-28.42-2.67-.27-3.59-.73-15.18-.28-6.3.24-15.21.94-20.67,1.68a23.81,23.81,0,0,0-9.52,11.95c-1.07,2.8-2.11,13.12-1.09,17.41,2.13,9,6.46,27.92,6.46,27.92,12.13,9.83,45.89,9.38,53.85,3,0,0,.63-6,1.13-10.82C313.85,149.83,316.13,139.88,313.35,132.67Z" style="fill:#455a64"></path><path d="M302.61,166c.45-3.4.81-7,1.13-10.82-4.66-.39-6.06-2.34-15,1.27s-12.42,3.64-22.08,2.6-20.32-6.52-20.32-6.52l2.4,10.44C260.89,172.76,294.65,172.31,302.61,166Z" style="fill:#8384F6"></path><path d="M302.61,166c.45-3.4.81-7,1.13-10.82-4.66-.39-6.06-2.34-15,1.27s-12.42,3.64-22.08,2.6-20.32-6.52-20.32-6.52l2.4,10.44C260.89,172.76,294.65,172.31,302.61,166Z" style="opacity:0.2"></path><path d="M291.59,155.38s-10.16,3.86-18.85.1c-9.39-4.07-10.66-12.53-9.81-15.83,0,0-4.33,13.41,7.49,18.29C282,162.73,291.59,155.38,291.59,155.38Z" style="fill:#37474f"></path><path d="M239.69,185.23l6.89-9.23s10.46,8.71,29.06,9.86c20,1.24,25.76-8,25.76-8l.09,13.21s-7,8.9-26.53,7.15C246.74,195.67,239.69,185.23,239.69,185.23Z" style="fill:#263238"></path><path d="M214.13,207.72c-1.65-3.4-2.84-5.88-2.79-7.08.2-1.92,3.47,2.73,4.87,3.62a5.25,5.25,0,0,0,3.84,1c.88-.05,2.23-1,2.07-1.9,0-.18-.18-.28-.31-.41a49.13,49.13,0,0,1-4.87-6.93,26.71,26.71,0,0,0-4.48-5.56,14.38,14.38,0,0,1-4.14-8.16c-1.21-11.77-1-20.74-.71-32.09,11.16-4.29,28.43-10.34,32.77-11.86,5.27-1.85,7.7-3.4,9.06-4.58,4.91-4.22,7.26-7.87,8.78-13.23,1.18-4.19,1.75-12.92,1.15-15.61-8.77.19-12.11.08-21.36,3.57-5.68,2.14-16.18,7.13-25.13,11.44a185,185,0,0,0-22.09,12.93c-2.55,1.78-5.67,3.64-5.14,10.46A176.36,176.36,0,0,0,188,162.51c.85,5,1.55,7.25,3.06,15.46.29,1.58.71,4.07,1.18,7s.72,7,.91,10a53.65,53.65,0,0,0,1.29,9.09c.68,2.63,3.25,8.89,5.19,10.63.68.61,1.49.74,2.13,1.35s1,1.43,1.66,2c1.06.86,1.93.57,3.48.36a3,3,0,0,1,1.79.23,9.43,9.43,0,0,1,1.36,1.18,5.25,5.25,0,0,0,5.56.58c1.54,1.1,2.3,1.66,3.81,2.76a1.13,1.13,0,0,0,.82.27.6.6,0,0,0,.42-.34,3.44,3.44,0,0,0,.53-2.54,9.21,9.21,0,0,0-2.06-4.41A95.33,95.33,0,0,1,214.13,207.72Z" style="fill:#ffbda7"></path><path d="M309.86,62.46c-.07,4-1.48,8.55-10.46,14.48-1.23.81-28.72,15.41-34.56,18.3,0,0-4.44-9.62-8.27-14.84-5.74-7.83-5.62-24.1,4-27A18,18,0,0,1,272,40.8C288.59,34.83,310.22,41,309.86,62.46Z" style="fill:#263238"></path><path d="M257.22,81.35c-3.87.15-4.84,3.82-5.24,7.59a4,4,0,0,0-4,1.17,9,9,0,0,0-2.42,4.46c-3.78-.6-4.82-.08-6.64.88A13.18,13.18,0,0,0,236,98a11.86,11.86,0,0,0-7.26-1.45A5.72,5.72,0,0,0,224.64,99a6.38,6.38,0,0,0-4.44-2.94,7.53,7.53,0,0,0-4.62.64A3.32,3.32,0,0,0,213.4,94c-2.42-.71-3.48.39-5,.14a3.41,3.41,0,0,1-2.74-2.18,6.49,6.49,0,0,0,8.86,6.3c-.7,3.17,5.11,4.32,7,2.63,2.15,3.38,8,4.18,10.95,1.1,2.61,3.93,9.83,2.46,11.08-1.4,2.84,2,7,2.16,8.09-1.66,2.52.42,6.21,1.23,7.31-2.4a5.23,5.23,0,0,0,5.47-.83c1.6-1.34,1.4-3.79,1.65-5.82C266.51,86.36,261.92,78.81,257.22,81.35Z" style="fill:#263238"></path><path d="M270.79,74.8c-3.85-.4-5.33,3.1-6.26,6.77a4,4,0,0,0-4.11.6,9,9,0,0,0-3,4.08c-3.66-1.13-4.76-.77-6.7-.08a13.61,13.61,0,0,0-3.23,2.11,11.82,11.82,0,0,0-7-2.46A5.74,5.74,0,0,0,236,87.67a6.36,6.36,0,0,0-4-3.53,7.49,7.49,0,0,0-4.66,0,3.32,3.32,0,0,0-1.77-3c-2.3-1-3.5-.11-4.94-.57a3.4,3.4,0,0,1-2.4-2.54,6.48,6.48,0,0,0,7.88,7.48c-1.15,3,4.45,5,6.53,3.6,1.66,3.65,7.31,5.26,10.69,2.63,2,4.26,9.39,3.83,11.17.19,2.53,2.33,6.66,3.12,8.24-.5,2.43.77,6,2.09,7.57-1.34a5.23,5.23,0,0,0,5.54-.06c1.77-1.1,1.92-3.55,2.46-5.52C279.28,81.08,275.8,73,270.79,74.8Z" style="fill:#263238"></path><path d="M304,55.05s3.43,4.19,2.12,15.36c-.23,1.94.89,5.49.54,10.43-.79,11.24-4.74,16.55-10.49,18.27-2.55.77-6.94.4-9.29-.07l-1,7.63s12,11.92.36,13.59c-5.23.76-11.5-2.21-15.7-6a38.86,38.86,0,0,1-6.95-8.66l2.24-18.17s-3.34,2.32-7-1.74c-4-4.47-3.34-11.07.27-13.18,5.3-3.09,8.5,1,9.48,3.5s3.94,3,4.58-2.52a11.82,11.82,0,0,0-.32-3.7c4.8-2.08,7.72-6.83,5.65-14.1C287.18,60,298.29,60,304,55.05Z" style="fill:#ffbda7"></path><path d="M265.81,78.49a2.64,2.64,0,0,1-1.06,2.19,2.77,2.77,0,0,1-1.3.52c-.28,0-.17.46.12,1.77l.19.84a.82.82,0,0,1-.55,1h0a.82.82,0,0,1-1-.54l-1.51-4.79a2.77,2.77,0,0,1,1.71-3.5A2.66,2.66,0,0,1,265.81,78.49Z" style="fill:#fafafa"></path><path d="M274,79.65c.25,1.89,2.64,3.13,5.34,2.78s4.69-2.17,4.45-4.06-2.64-3.13-5.34-2.78S273.72,77.76,274,79.65Z" style="fill:#f0997a"></path><path d="M302,78.43c0,1.91,2.13,3.5,4.86,3.56s5-1.42,5-3.33-2.13-3.5-4.85-3.56S302.08,76.53,302,78.43Z" style="fill:#f0997a"></path><path d="M286.15,84.66,293,86.78a3.52,3.52,0,0,1-4.42,2.49A3.75,3.75,0,0,1,286.15,84.66Z" style="fill:#b16668"></path><path d="M285.85,66.53l-5,2a2.6,2.6,0,0,1,1.39-3.52A2.85,2.85,0,0,1,285.85,66.53Z" style="fill:#263238"></path><path d="M299,66.62l5,2.2a2.61,2.61,0,0,0-1.29-3.56A2.84,2.84,0,0,0,299,66.62Z" style="fill:#263238"></path><polygon points="292.8 69.76 292.8 82.04 299.99 80.18 292.8 69.76" style="fill:#f0997a"></polygon><path d="M286.85,99c-3.1-.63-10.8-3.26-14.48-6-2-1.48-3.45-4.62-3.9-6,0,0,.18,5.55,3.06,8.17,4.58,4.15,14.89,7.23,14.89,7.23Z" style="fill:#f0997a"></path><path d="M298.56,72.44a2.14,2.14,0,0,0,2.14,2,2,2,0,0,0,2-2,2.13,2.13,0,0,0-2.13-2A2,2,0,0,0,298.56,72.44Z" style="fill:#263238"></path><path d="M282.85,72.31a2.14,2.14,0,0,0,1.82,2.34,2,2,0,0,0,2.3-1.74,2.14,2.14,0,0,0-1.82-2.34A2,2,0,0,0,282.85,72.31Z" style="fill:#263238"></path><path d="M286.14,86.65a6,6,0,0,1,.84,0,5.07,5.07,0,0,1,3.67,2.57,3.4,3.4,0,0,1-2.07,0A3.66,3.66,0,0,1,286.14,86.65Z" style="fill:#f28f8f"></path></g></g></g><g id="freepik--Kcal--inject-5"><g id="freepik--Stats--inject-5"><circle cx="149.6" cy="408.89" r="38.4" style="fill:#fff"></circle><path d="M149.6,446.29a37.4,37.4,0,1,1,37.4-37.4,37.39,37.39,0,0,1-37.4,37.4m0,2a39.4,39.4,0,1,0-39.4-39.4,39.44,39.44,0,0,0,39.4,39.4Z" style="fill:#8384F6"></path><path d="M273.44,398.64a2.36,2.36,0,1,0-2.35,2.36A2.36,2.36,0,0,0,273.44,398.64Z" style="fill:#8384F6"></path><polygon points="271.09 398.14 233.93 398.14 220.96 408.39 187 408.39 187 409.39 221.31 409.39 234.28 399.14 271.09 399.14 271.09 398.14" style="fill:#8384F6"></polygon><path d="M122.46,427.77a3,3,0,0,1-.13-.85.35.35,0,0,1,.07-.26l3.95-5.73a7.81,7.81,0,0,0,.65-1.12,2.28,2.28,0,0,0,.19-.88,1.32,1.32,0,0,0-.44-1.06,1.74,1.74,0,0,0-1.18-.37,2.27,2.27,0,0,0-.93.17,5.42,5.42,0,0,0-.82.43.94.94,0,0,1-.43.21.73.73,0,0,1-.57-.39,1.24,1.24,0,0,1-.28-.72,1,1,0,0,1,.51-.79,3.71,3.71,0,0,1,1.27-.53,6.3,6.3,0,0,1,1.54-.19,3.83,3.83,0,0,1,2.64.86,2.93,2.93,0,0,1,.95,2.28,4,4,0,0,1-.32,1.56,10.6,10.6,0,0,1-1.17,1.86l-2.81,4.18h3.9a.4.4,0,0,1,.36.18,1.06,1.06,0,0,1,.11.58v.27a1.08,1.08,0,0,1-.11.58.4.4,0,0,1-.36.18h-6.28C122.65,428.22,122.55,428.07,122.46,427.77Z" style="fill:#455a64"></path><path d="M131.55,428c-.73-.23-1.1-.55-1.1-.95a1.56,1.56,0,0,1,.27-.74q.27-.45.51-.45a1.06,1.06,0,0,1,.4.18,9.3,9.3,0,0,0,.87.38,2.67,2.67,0,0,0,.9.13,2,2,0,0,0,1.37-.49,1.9,1.9,0,0,0,.55-1.49,2,2,0,0,0-.53-1.51,2.36,2.36,0,0,0-1.62-.48h-.65a.4.4,0,0,1-.36-.17,1.11,1.11,0,0,1-.12-.59v-.27a1.07,1.07,0,0,1,.12-.58.38.38,0,0,1,.36-.18H133a1.79,1.79,0,0,0,1.4-.53,1.76,1.76,0,0,0,.5-1.24,1.62,1.62,0,0,0-.38-1.1,1.5,1.5,0,0,0-1.16-.42,2.71,2.71,0,0,0-.84.11,3.78,3.78,0,0,0-.61.28,1.36,1.36,0,0,1-.34.16c-.14,0-.31-.15-.5-.44a1.43,1.43,0,0,1-.28-.75c0-.36.3-.64.92-.85a6.34,6.34,0,0,1,2.07-.32,3.54,3.54,0,0,1,2.47.82,2.9,2.9,0,0,1,.9,2.25,2.68,2.68,0,0,1-.46,1.58,2.85,2.85,0,0,1-1.24,1v.07a3,3,0,0,1,1.54,1.18,3.54,3.54,0,0,1,.57,2,3.94,3.94,0,0,1-.48,2,3.21,3.21,0,0,1-1.32,1.29,4.12,4.12,0,0,1-1.92.44A7.75,7.75,0,0,1,131.55,428Z" style="fill:#455a64"></path><path d="M140.22,428.17a3.35,3.35,0,0,1-1.1-.44.74.74,0,0,1-.4-.59,1.53,1.53,0,0,1,.31-.75q.32-.48.54-.48a2.09,2.09,0,0,1,.4.19,4.69,4.69,0,0,0,.78.32,3.25,3.25,0,0,0,1,.13A1.59,1.59,0,0,0,143,426a2.22,2.22,0,0,0,.5-1.53,1.88,1.88,0,0,0-2.13-2.12H139.8a.62.62,0,0,1-.47-.16.73.73,0,0,1-.13-.5l.34-5.21a.75.75,0,0,1,.17-.51.73.73,0,0,1,.5-.15h4.62a.39.39,0,0,1,.36.19,1.21,1.21,0,0,1,.11.58V417a.85.85,0,0,1-.11.48.41.41,0,0,1-.36.15h-3.24l-.19,2.93h.44q3.91,0,3.92,3.9a3.6,3.6,0,0,1-1.16,3,4.36,4.36,0,0,1-2.81.93A6.35,6.35,0,0,1,140.22,428.17Z" style="fill:#455a64"></path><path d="M156.62,428c0,.18-.28.26-.83.26H155a1.23,1.23,0,0,1-.46-.06.45.45,0,0,1-.2-.24l-2-4.16h-.18v3.95c0,.34-.3.51-.89.51h-.44q-.9,0-.9-.51V415.37c0-.33.3-.5.9-.5h.44c.59,0,.89.17.89.5v7.57h.09l1.88-3.72a.49.49,0,0,1,.24-.25,1.2,1.2,0,0,1,.46-.06h.73c.56,0,.83.1.83.29a1,1,0,0,1-.12.37l-2,3.79,2.19,4.29A1,1,0,0,1,156.62,428Z" style="fill:#455a64"></path><path d="M158.17,427.18a7.34,7.34,0,0,1,0-7.19,3.4,3.4,0,0,1,2.82-1.16,4.4,4.4,0,0,1,1.7.32c.5.22.75.47.75.76a1.64,1.64,0,0,1-.25.74c-.16.31-.32.46-.46.46a.76.76,0,0,1-.28-.12,4.47,4.47,0,0,0-.6-.28,2.1,2.1,0,0,0-.66-.09,1.36,1.36,0,0,0-1.25.68,4.51,4.51,0,0,0-.42,2.26,5,5,0,0,0,.39,2.29,1.33,1.33,0,0,0,1.26.7,2.2,2.2,0,0,0,.72-.1,5.21,5.21,0,0,0,.61-.27l.16-.09a.39.39,0,0,1,.14,0c.16,0,.31.15.47.45a1.69,1.69,0,0,1,.24.75q0,.28-.42.54a3.29,3.29,0,0,1-1,.41,4.73,4.73,0,0,1-1.11.15A3.37,3.37,0,0,1,158.17,427.18Z" style="fill:#455a64"></path><path d="M165.2,427.61a3.37,3.37,0,0,1,.41-4.42,5,5,0,0,1,3.29-.89v-.48a1.08,1.08,0,0,0-1.24-1.2,2.57,2.57,0,0,0-.83.11,7.29,7.29,0,0,0-.77.31.68.68,0,0,1-.33.14c-.16,0-.33-.16-.53-.48a1.74,1.74,0,0,1-.29-.76q0-.29.42-.54a3.6,3.6,0,0,1,1.09-.41,5.79,5.79,0,0,1,1.38-.16,3.55,3.55,0,0,1,2.52.78,2.83,2.83,0,0,1,.81,2.14v3.53a10.39,10.39,0,0,0,.11,1.76,5.21,5.21,0,0,1,.1.68c0,.17-.19.29-.58.38a4.75,4.75,0,0,1-1,.14.43.43,0,0,1-.39-.23,3.63,3.63,0,0,1-.24-.73,2.52,2.52,0,0,1-.83.75,2.29,2.29,0,0,1-1.21.31A2.34,2.34,0,0,1,165.2,427.61Zm3.16-1.18a1.61,1.61,0,0,0,.54-.53v-2.15c-1.51,0-2.27.56-2.27,1.69a1.33,1.33,0,0,0,.26.87.93.93,0,0,0,.77.31A1.34,1.34,0,0,0,168.36,426.43Z" style="fill:#455a64"></path><path d="M174,427.74a2.64,2.64,0,0,1-.59-1.9V415.37c0-.33.32-.5.94-.5h.36c.62,0,.94.17.94.5v10.46a1,1,0,0,0,.12.55.41.41,0,0,0,.37.17,1.15,1.15,0,0,0,.26,0,.68.68,0,0,1,.2,0q.19,0,.33.42a2.39,2.39,0,0,1,.14.72c0,.24-.16.43-.47.55a3.15,3.15,0,0,1-1,.17A2.08,2.08,0,0,1,174,427.74Z" style="fill:#455a64"></path><path d="M147.75,409l-2.32-9.2,5.36,1.91-2-10.37,6.46,13.52-6.13-.92L152,409s4.75-.25,7.24-3.81,3.81-8.79.75-12.94c-.83,5-5.73.75-5.64-2.32s0-11.28-6.64-13.93c1.91,1.91,1.5,9.37-1.24,10.86s-3.65-1.41-2.49-3c-2.65.5-3.56,2.49-3.31,5.31s3,5.55,1.65,8-3.73-.83-3.06-3.74c-2.7,2.7-2.24,9.21.66,11.94A12.63,12.63,0,0,0,147.75,409Z" style="fill:#8384F6"></path></g></g><g id="freepik--Distance--inject-5"><g id="freepik--stats--inject-5"><circle cx="421.45" cy="375.41" r="38.4" style="fill:#fff"></circle><path d="M421.45,412.81a37.4,37.4,0,1,1,37.4-37.4,37.4,37.4,0,0,1-37.4,37.4m0,2a39.4,39.4,0,1,0-39.4-39.4,39.44,39.44,0,0,0,39.4,39.4Z" style="fill:#8384F6"></path><path d="M332.75,365.16a2.36,2.36,0,1,1,2.35,2.35A2.35,2.35,0,0,1,332.75,365.16Z" style="fill:#8384F6"></path><polygon points="335.1 364.65 355.8 364.65 368.77 374.91 384.05 374.91 384.05 375.91 368.43 375.91 355.45 365.65 335.1 365.65 335.1 364.65" style="fill:#8384F6"></polygon><path d="M423.89,371.19c3.49,1.85,5.45-2.33,6.62-5.17l-5.37-2.59S420.45,369.36,423.89,371.19ZM433,344.72c-5.05-.44-6.38,5.84-6.36,8.29a40.49,40.49,0,0,1-.38,7.08l5.37,2.59a34.56,34.56,0,0,0,4.2-6.85C437.25,352.42,438,345.15,433,344.72Z" style="fill:#8384F6"></path><path d="M412.75,368.66,407,367.14c-1,2.93-2.17,7.39,1.68,8.24S412.75,368.66,412.75,368.66ZM409.57,356a34.9,34.9,0,0,0-1.25,7.93l5.77,1.52a39.84,39.84,0,0,1,4.31-5.64c1.6-1.84,4.67-7.48.55-10.43S410.68,352.43,409.57,356Z" style="fill:#8384F6"></path><path d="M396.71,394.88a1.26,1.26,0,0,1-.1-.58V394a1.22,1.22,0,0,1,.1-.59.38.38,0,0,1,.36-.18h2.05v-8.52l-2.14.34c-.18,0-.3-.15-.38-.43a3.15,3.15,0,0,1-.12-.87c0-.23.14-.38.41-.44l3.81-.75a.89.89,0,0,1,.43.13c.15.08.23.18.23.28v10.26H403a.41.41,0,0,1,.37.18,1.2,1.2,0,0,1,.11.59v.26a1.23,1.23,0,0,1-.11.59.43.43,0,0,1-.37.17h-5.95A.38.38,0,0,1,396.71,394.88Z" style="fill:#455a64"></path><path d="M405.53,393.57a12.64,12.64,0,0,1,0-9.42,3,3,0,0,1,5.31,0,12.52,12.52,0,0,1,0,9.42,3,3,0,0,1-5.31,0Zm3.34-.56a3.51,3.51,0,0,0,.42-1.38,19.78,19.78,0,0,0,.15-2.77,19.52,19.52,0,0,0-.15-2.76,3.51,3.51,0,0,0-.42-1.39.81.81,0,0,0-.69-.39.8.8,0,0,0-.69.39,3.51,3.51,0,0,0-.42,1.39,19.52,19.52,0,0,0-.15,2.76,19.78,19.78,0,0,0,.15,2.77,3.51,3.51,0,0,0,.42,1.38.8.8,0,0,0,.69.39A.81.81,0,0,0,408.87,393Z" style="fill:#455a64"></path><path d="M412.77,394.58v-1.47c0-.33.3-.49.9-.49h.5c.6,0,.9.16.9.49v1.47c0,.35-.3.52-.9.52h-.5C413.07,395.1,412.77,394.93,412.77,394.58Z" style="fill:#455a64"></path><path d="M416.06,394.61a3,3,0,0,1-.14-.84.44.44,0,0,1,.07-.27l3.95-5.72a7,7,0,0,0,.65-1.13,2.1,2.1,0,0,0,.19-.87,1.34,1.34,0,0,0-.44-1.07,1.79,1.79,0,0,0-1.18-.37,2.36,2.36,0,0,0-.92.17,6,6,0,0,0-.83.43.91.91,0,0,1-.42.22.73.73,0,0,1-.58-.39,1.32,1.32,0,0,1-.27-.73,1,1,0,0,1,.5-.79,3.77,3.77,0,0,1,1.28-.53,6.68,6.68,0,0,1,1.53-.19,3.83,3.83,0,0,1,2.64.86,2.93,2.93,0,0,1,1,2.28,3.83,3.83,0,0,1-.33,1.56,10.32,10.32,0,0,1-1.16,1.86l-2.82,4.18h3.9a.4.4,0,0,1,.36.18,1.08,1.08,0,0,1,.12.59v.26a1.11,1.11,0,0,1-.12.59.42.42,0,0,1-.36.17h-6.28C416.25,395.06,416.14,394.91,416.06,394.61Z" style="fill:#455a64"></path><path d="M433.94,394.83c0,.18-.27.27-.83.27h-.78a1.21,1.21,0,0,1-.45-.06.38.38,0,0,1-.2-.24l-2-4.17h-.18v3.95c0,.35-.29.52-.88.52h-.44c-.61,0-.91-.17-.91-.52V382.22c0-.33.3-.5.91-.5h.44c.59,0,.88.17.88.5v7.56h.09l1.88-3.72a.53.53,0,0,1,.24-.25,1.65,1.65,0,0,1,.47-.05h.73c.55,0,.83.09.83.28a1,1,0,0,1-.12.38l-2,3.79,2.2,4.29A.87.87,0,0,1,433.94,394.83Z" style="fill:#455a64"></path><path d="M445.38,386.33a3,3,0,0,1,.54,1.95v6.3c0,.35-.3.52-.9.52h-.44c-.61,0-.91-.17-.91-.52v-5.86a1.57,1.57,0,0,0-.2-.89.73.73,0,0,0-.65-.3,1,1,0,0,0-.62.21,1.94,1.94,0,0,0-.49.5v6.34c0,.35-.31.52-.91.52h-.46c-.6,0-.9-.17-.9-.52v-5.86a1.56,1.56,0,0,0-.21-.89.71.71,0,0,0-.64-.3,1,1,0,0,0-.68.25,2,2,0,0,0-.44.55v6.25a.41.41,0,0,1-.22.39,1.37,1.37,0,0,1-.68.13h-.46c-.59,0-.89-.17-.89-.52v-5.84a12,12,0,0,0-.09-1.76c-.06-.35-.09-.56-.09-.62s.21-.33.61-.41a5.16,5.16,0,0,1,1.08-.14.4.4,0,0,1,.4.21,1.56,1.56,0,0,1,.15.5c0,.2.06.36.08.48a3.41,3.41,0,0,1,1-1,2.41,2.41,0,0,1,1.3-.37,2.12,2.12,0,0,1,1.18.32,1.71,1.71,0,0,1,.7,1,2.94,2.94,0,0,1,1-.92,2.63,2.63,0,0,1,1.36-.36A1.84,1.84,0,0,1,445.38,386.33Z" style="fill:#455a64"></path></g></g><g id="freepik--Time--inject-5"><g id="freepik--stats--inject-5"><circle cx="395.62" cy="245.04" r="38.4" style="fill:#fff"></circle><path d="M395.62,282.44A37.4,37.4,0,1,1,433,245a37.4,37.4,0,0,1-37.4,37.4m0,2a39.4,39.4,0,1,0-39.4-39.4,39.44,39.44,0,0,0,39.4,39.4Z" style="fill:#8384F6"></path><path d="M308.86,234.78a2.36,2.36,0,1,1,2.36,2.36A2.36,2.36,0,0,1,308.86,234.78Z" style="fill:#8384F6"></path><polygon points="311.22 234.28 329.97 234.28 342.94 244.54 358.22 244.54 358.22 245.54 342.6 245.54 329.62 235.28 311.22 235.28 311.22 234.28" style="fill:#8384F6"></polygon><path d="M369.3,262.18a12.54,12.54,0,0,1,0-9.43,2.88,2.88,0,0,1,2.64-1.61,2.91,2.91,0,0,1,2.66,1.61,12.54,12.54,0,0,1,0,9.43,3,3,0,0,1-5.3,0Zm3.34-.57a3.72,3.72,0,0,0,.41-1.38,25.56,25.56,0,0,0,0-5.53,3.72,3.72,0,0,0-.41-1.38.81.81,0,0,0-1.39,0,3.72,3.72,0,0,0-.41,1.38,25.56,25.56,0,0,0,0,5.53,3.72,3.72,0,0,0,.41,1.38.81.81,0,0,0,1.39,0Z" style="fill:#455a64"></path><path d="M377.43,262.18a12.67,12.67,0,0,1,0-9.43,3,3,0,0,1,5.31,0,12.54,12.54,0,0,1,0,9.43,3,3,0,0,1-5.31,0Zm3.34-.57a3.51,3.51,0,0,0,.42-1.38,25.56,25.56,0,0,0,0-5.53,3.51,3.51,0,0,0-.42-1.38.81.81,0,0,0-1.38,0,3.51,3.51,0,0,0-.42,1.38,25.56,25.56,0,0,0,0,5.53,3.51,3.51,0,0,0,.42,1.38.81.81,0,0,0,1.38,0Z" style="fill:#455a64"></path><path d="M384.67,256.35v-1.47q0-.51.9-.51h.5q.9,0,.9.51v1.47c0,.33-.3.5-.9.5h-.5C385,256.85,384.67,256.68,384.67,256.35Zm0,6.84v-1.47c0-.33.3-.5.9-.5h.5c.6,0,.9.17.9.5v1.47q0,.51-.9.51h-.5Q384.67,263.7,384.67,263.19Z" style="fill:#455a64"></path><path d="M392.08,263.19V261h-3.9c-.12,0-.24-.17-.37-.51a2.32,2.32,0,0,1-.2-.87.34.34,0,0,1,0-.19l4.12-7.84a.59.59,0,0,1,.34-.28,2,2,0,0,1,.6-.07h.71c.59,0,.89.17.89.51v7.46H395a.41.41,0,0,1,.37.18,1.2,1.2,0,0,1,.11.59v.26a1.23,1.23,0,0,1-.11.59.43.43,0,0,1-.37.17h-.65v2.2c0,.34-.3.51-.89.51H393C392.37,263.7,392.08,263.53,392.08,263.19Zm0-4v-2.35a17.37,17.37,0,0,1,.16-2.34l-.08,0-2.41,4.71Z" style="fill:#455a64"></path><path d="M397.58,263.63a3.25,3.25,0,0,1-1.1-.45.74.74,0,0,1-.4-.59,1.53,1.53,0,0,1,.31-.75c.21-.32.39-.47.54-.47a1.75,1.75,0,0,1,.4.18,4,4,0,0,0,.78.32,3.23,3.23,0,0,0,1,.13,1.62,1.62,0,0,0,1.28-.55,2.26,2.26,0,0,0,.5-1.54,1.88,1.88,0,0,0-2.13-2.12h-1.56a.62.62,0,0,1-.47-.15.76.76,0,0,1-.13-.51l.34-5.21a.72.72,0,0,1,.17-.5.67.67,0,0,1,.5-.16h4.62a.39.39,0,0,1,.36.19,1.23,1.23,0,0,1,.1.58v.39a.86.86,0,0,1-.1.48.41.41,0,0,1-.36.15H399l-.19,2.93h.44q3.92,0,3.92,3.9a3.57,3.57,0,0,1-1.17,3,4.34,4.34,0,0,1-2.8.93A6.83,6.83,0,0,1,397.58,263.63Z" style="fill:#455a64"></path><path d="M404.27,256.35v-1.47q0-.51.9-.51h.5q.9,0,.9.51v1.47c0,.33-.3.5-.9.5h-.5C404.57,256.85,404.27,256.68,404.27,256.35Zm0,6.84v-1.47c0-.33.3-.5.9-.5h.5c.6,0,.9.17.9.5v1.47q0,.51-.9.51h-.5Q404.27,263.7,404.27,263.19Z" style="fill:#455a64"></path><path d="M407.81,263.48a1.17,1.17,0,0,1-.11-.57v-.27a1.19,1.19,0,0,1,.11-.58.38.38,0,0,1,.36-.18h2.05v-8.52l-2.14.33c-.18,0-.31-.14-.38-.42a3.26,3.26,0,0,1-.12-.87A.43.43,0,0,1,408,252l3.81-.75a.82.82,0,0,1,.43.13c.15.08.22.17.22.28v10.26h1.67a.39.39,0,0,1,.36.18,1.07,1.07,0,0,1,.12.58v.27a1.07,1.07,0,0,1-.12.58.39.39,0,0,1-.36.18h-5.95A.37.37,0,0,1,407.81,263.48Z" style="fill:#455a64"></path><path d="M417.18,263.63a3.25,3.25,0,0,1-1.1-.45.74.74,0,0,1-.4-.59,1.53,1.53,0,0,1,.31-.75c.21-.32.39-.47.54-.47a1.75,1.75,0,0,1,.4.18,4,4,0,0,0,.78.32,3.23,3.23,0,0,0,1,.13,1.64,1.64,0,0,0,1.28-.55,2.26,2.26,0,0,0,.5-1.54,1.88,1.88,0,0,0-2.13-2.12h-1.56a.62.62,0,0,1-.47-.15.76.76,0,0,1-.13-.51l.33-5.21a.77.77,0,0,1,.18-.5.67.67,0,0,1,.5-.16h4.62a.39.39,0,0,1,.36.19,1.23,1.23,0,0,1,.1.58v.39a.86.86,0,0,1-.1.48.41.41,0,0,1-.36.15h-3.24l-.19,2.93h.44q3.92,0,3.91,3.9a3.57,3.57,0,0,1-1.16,3,4.34,4.34,0,0,1-2.81.93A6.8,6.8,0,0,1,417.18,263.63Z" style="fill:#455a64"></path><path d="M404.19,234.79a9.45,9.45,0,1,1-8.57-13.44v9.45S401.85,233.76,404.19,234.79Z" style="fill:#8384F6"></path><g style="opacity:0.5"><path d="M404.19,234.79a9.45,9.45,0,1,1-8.57-13.44v9.45S401.85,233.76,404.19,234.79Z" style="fill:#fff"></path></g><path d="M397.25,218.75v-1.31h1.34a.33.33,0,0,0,.33-.33v-2.29a.33.33,0,0,0-.33-.33h-5.94a.33.33,0,0,0-.33.33v2.29a.33.33,0,0,0,.33.33H394v1.31a12,12,0,0,0-6.19,2.74l-.59-.59.63-.63a.21.21,0,0,0,0-.31l-1.07-1.08a.23.23,0,0,0-.31,0l-2.79,2.78a.21.21,0,0,0,0,.31l1.07,1.07a.21.21,0,0,0,.31,0l.63-.62.59.59a12.18,12.18,0,1,0,11-4.26Zm-1.63,22.81a10.77,10.77,0,1,1,10.77-10.76A10.77,10.77,0,0,1,395.62,241.56Z" style="fill:#8384F6"></path></g></g><g id="freepik--heart-rate--inject-5"><g id="freepik--stats--inject-5"><circle cx="433.47" cy="101.57" r="38.4" style="fill:#fff"></circle><path d="M433.47,64.17a37.4,37.4,0,1,1-37.4,37.4,37.4,37.4,0,0,1,37.4-37.4m0-2a39.4,39.4,0,1,0,39.41,39.4,39.44,39.44,0,0,0-39.41-39.4Z" style="fill:#8384F6"></path><path d="M333.07,111.82a2.36,2.36,0,1,0,2.36-2.36A2.36,2.36,0,0,0,333.07,111.82Z" style="fill:#8384F6"></path><polygon points="335.43 112.32 358.49 112.32 371.46 102.07 396.07 102.07 396.07 101.07 371.11 101.07 358.14 111.32 335.43 111.32 335.43 112.32" style="fill:#8384F6"></polygon><path d="M426.89,78.3A23.25,23.25,0,0,0,419,83.77a1.35,1.35,0,0,0,.31,2.11,1.33,1.33,0,0,0,1.64-.22,20.64,20.64,0,0,1,7-4.82,1.41,1.41,0,0,0,.88-1.59A1.36,1.36,0,0,0,426.89,78.3Zm28,13.56a1.34,1.34,0,0,0,1.25.83,1.42,1.42,0,0,0,.53-.1,1.36,1.36,0,0,0,.72-1.78,23.26,23.26,0,0,0-21.5-14.31h-.07a1.34,1.34,0,0,0-1.33,1.36,1.4,1.4,0,0,0,1.4,1.36A20.56,20.56,0,0,1,454.88,91.86Zm2.95,6.5a1.36,1.36,0,0,0-1.36,1.36v.1a20.53,20.53,0,0,1-12.7,19,1.36,1.36,0,0,0,.53,2.62,1.39,1.39,0,0,0,.52-.11,23.25,23.25,0,0,0,14.37-21.53v-.1A1.36,1.36,0,0,0,457.83,98.36Z" style="fill:#8384F6"></path><path d="M426.89,78.3A23.25,23.25,0,0,0,419,83.77a1.35,1.35,0,0,0,.31,2.11,1.33,1.33,0,0,0,1.64-.22,20.64,20.64,0,0,1,7-4.82,1.41,1.41,0,0,0,.88-1.59A1.36,1.36,0,0,0,426.89,78.3Zm28,13.56a1.34,1.34,0,0,0,1.25.83,1.42,1.42,0,0,0,.53-.1,1.36,1.36,0,0,0,.72-1.78,23.26,23.26,0,0,0-21.5-14.31h-.07a1.34,1.34,0,0,0-1.33,1.36,1.4,1.4,0,0,0,1.4,1.36A20.56,20.56,0,0,1,454.88,91.86Zm2.95,6.5a1.36,1.36,0,0,0-1.36,1.36v.1a20.53,20.53,0,0,1-12.7,19,1.36,1.36,0,0,0,.53,2.62,1.39,1.39,0,0,0,.52-.11,23.25,23.25,0,0,0,14.37-21.53v-.1A1.36,1.36,0,0,0,457.83,98.36Z" style="fill:#fff;opacity:0.5"></path><path d="M416.32,102.56l-1.61-1a25.64,25.64,0,0,1-3.84-2.77c-1.73-1.54-3.34-3.33-3.33-6a4.47,4.47,0,0,1,1.26-3.05,4.57,4.57,0,0,1,3.32-1.5,4.23,4.23,0,0,1,4.2,2.13,4.25,4.25,0,0,1,4.19-2.13,4.57,4.57,0,0,1,3.3,1.47l.07.08a4.44,4.44,0,0,1,1.21,3c0,2.68-1.6,4.48-3.33,6a24.87,24.87,0,0,1-3.86,2.77Zm-3.84-13.44h-.31a3.72,3.72,0,0,0-2.69,1.19,3.62,3.62,0,0,0-1,2.46c0,2.32,1.45,3.93,3,5.32a23,23,0,0,0,3.71,2.67l1.13.71,1.11-.7a23.75,23.75,0,0,0,3.72-2.68c1.58-1.39,3-3,3-5.32a3.56,3.56,0,0,0-1-2.43l-.07-.09a3.71,3.71,0,0,0-2.64-1.13A3.35,3.35,0,0,0,417,91l-.67,1.15L415.65,91A3.31,3.31,0,0,0,412.48,89.12Z" style="fill:#8384F6"></path><path d="M408.13,120.69a1.21,1.21,0,0,1-.12-.62v-.29a1.23,1.23,0,0,1,.12-.62.45.45,0,0,1,.4-.19h2.81V107.41l-3,.48c-.18,0-.31-.15-.4-.44a3.16,3.16,0,0,1-.14-.92c0-.25.15-.41.45-.49l4.69-1a1,1,0,0,1,.51.14.42.42,0,0,1,.25.35V119H416a.43.43,0,0,1,.39.19,1.23,1.23,0,0,1,.12.62v.29a1.21,1.21,0,0,1-.12.62.42.42,0,0,1-.39.19h-7.48A.45.45,0,0,1,408.13,120.69Z" style="fill:#455a64"></path><path d="M420.13,120.85a5.79,5.79,0,0,1-1.59-.53c-.41-.22-.62-.47-.62-.74a1.54,1.54,0,0,1,.33-.8c.21-.33.4-.49.55-.49a1.73,1.73,0,0,1,.52.21,7.81,7.81,0,0,0,1.1.46,4.32,4.32,0,0,0,1.26.17,3,3,0,0,0,2-.69,2.71,2.71,0,0,0,.84-2.2,2.64,2.64,0,0,0-.77-2.1,3.39,3.39,0,0,0-2.23-.64h-.88a.45.45,0,0,1-.39-.2,1.08,1.08,0,0,1-.13-.62v-.29a1.06,1.06,0,0,1,.13-.61.43.43,0,0,1,.39-.18h.74a2.55,2.55,0,0,0,1.5-.41,2.45,2.45,0,0,0,.87-1A2.89,2.89,0,0,0,424,109a2.19,2.19,0,0,0-.53-1.47,2.22,2.22,0,0,0-1.75-.6,3.64,3.64,0,0,0-1.13.15,7.49,7.49,0,0,0-.85.36,1.57,1.57,0,0,1-.47.21c-.15,0-.33-.17-.54-.5a1.68,1.68,0,0,1-.32-.83c0-.38.4-.69,1.19-1A8,8,0,0,1,422,105a4.54,4.54,0,0,1,3.14,1,3.64,3.64,0,0,1,1.16,2.86,3.25,3.25,0,0,1-.62,2,3.78,3.78,0,0,1-1.63,1.22v.09a3.75,3.75,0,0,1,2,1.44,4.48,4.48,0,0,1,.79,2.73,5,5,0,0,1-.62,2.54,4,4,0,0,1-1.7,1.6,5.36,5.36,0,0,1-2.43.54A9.87,9.87,0,0,1,420.13,120.85Z" style="fill:#455a64"></path><path d="M430.36,120.83a4.35,4.35,0,0,1-1.36-.56c-.33-.22-.49-.45-.49-.67a1.6,1.6,0,0,1,.33-.81c.23-.33.42-.5.57-.5a1.12,1.12,0,0,1,.45.18A7.26,7.26,0,0,0,431,119a4,4,0,0,0,1.27.18,2.56,2.56,0,0,0,1.9-.8,3.1,3.1,0,0,0,.76-2.22,2.84,2.84,0,0,0-.81-2.19,3.48,3.48,0,0,0-2.41-.74h-1.8a.71.71,0,0,1-.55-.17.85.85,0,0,1-.15-.57l.4-6.58a.85.85,0,0,1,.21-.56.77.77,0,0,1,.56-.18h5.72a.45.45,0,0,1,.4.19,1.21,1.21,0,0,1,.12.62v.36a1,1,0,0,1-.12.56.46.46,0,0,1-.4.18h-4.32l-.27,4.24h.81a5.54,5.54,0,0,1,3.53,1.11,4.45,4.45,0,0,1,1.42,3.73,4.55,4.55,0,0,1-1.43,3.77,5.35,5.35,0,0,1-3.48,1.16A8.33,8.33,0,0,1,430.36,120.83Z" style="fill:#455a64"></path></g></g><g id="freepik--chart-2--inject-5"><g id="freepik--Chart--inject-5"><g id="freepik--chart--inject-5"><g id="freepik--Window--inject-5"><path d="M175.17,182c0-2-.72-3.36-1.86-4h0l-4.78-2.73h0c-1.11-.68-2.65-.61-4.37.38L35,250.24a13.48,13.48,0,0,0-6.09,10.55v91.28c0,2,.69,3.33,1.81,4h0l4.89,2.79h0c1.1.64,2.63.55,4.31-.43l129.15-74.55a13.49,13.49,0,0,0,6.09-10.56Z" style="fill:#8384F6;opacity:0.4"></path><path d="M175.17,182V273.3a13.43,13.43,0,0,1-6.1,10.55L39.93,358.41c-3,1.73-5.48.67-6-2.32A5.61,5.61,0,0,0,35,355.6L164.16,281a13.45,13.45,0,0,0,6.09-10.55V179.21a6.73,6.73,0,0,0-.1-1.23C173,176.92,175.17,178.55,175.17,182Z" style="fill:#8384F6;opacity:0.4"></path><path d="M169.07,178.49,54.51,245.91l-8.32,4.78s-4.4,2.37-6.16,3.57a10.76,10.76,0,0,0-1.64,1.4,12.51,12.51,0,0,0-3.48,7.88l0,9.58-1,81.76-1.06-81.76v-9.6a14.59,14.59,0,0,1,4-9.34,12.27,12.27,0,0,1,2-1.71c1.81-1.26,6.27-3.67,6.27-3.67L53.4,244Z" style="fill:#fff"></path></g><g id="freepik--chart--inject-5"><path d="M131.34,228.1l-.56.32h0L43.63,278.74l-.57.33v65.12l88.47-51.08h0l32.9-19V209Zm22.12-11.76,10.21-5.89v15l-10.21,5.89Zm-11,6.33,10.21-5.89v15l-10.21,5.89Zm-11,6.33,10.21-5.9v15L131.53,244Zm-11,53.4v-15l10.21-5.89v15Zm0-16v-15l10.21-5.9v15Zm-11,22.36v-15l10.21-5.9v15Zm0-16v-15l10.21-5.9v15Zm-11,22.36v-15l10.21-5.9v15Zm0-16V264l10.21-5.9v15Zm-11,22.36v-15l10.2-5.89v15Zm0-16v-15l10.2-5.9v15Zm-11,22.36v-15l10.21-5.9v15Zm0-16v-15l10.21-5.9v15Zm-11,22.36V299L76,293.14v15Zm0-16V283L76,277.12v15Zm-11,22.36v-15L65,299.47v15Zm0-16v-15L65,283.45v15Zm-11,22.36v-15L54,305.8v15Zm0-16v-15L54,289.78v15Zm76.75-75.35,10.21-5.9v15l-10.21,5.89Zm-11,6.33,10.21-5.9v15l-10.21,5.9Zm-11,6.33,10.21-5.9v15L98.64,263Zm-11,6.33,10.2-5.9v15l-10.2,5.9Zm-11,6.33,10.21-5.9v15l-10.21,5.9Zm-11,6.33L76,261.08v15L65.75,282Zm-11,6.33L65,267.41v15l-10.21,5.9Zm-11,6.33L54,273.74v15l-10.21,5.9ZM54,336.85l-10.21,5.89v-15L54,321.83Zm11-6.33-10.21,5.89v-15L65,315.5Zm11-6.33-10.21,5.89v-15L76,309.17Zm11-6.33-10.21,5.89v-15l10.21-5.89Zm11-6.33-10.2,5.89v-15l10.2-5.89Zm11-6.33-10.21,5.89v-15l10.21-5.89Zm11-6.33-10.21,5.89v-15l10.21-5.89Zm11-6.33-10.21,5.89v-15l10.21-5.89Zm11-6.33-10.21,5.89v-15l10.21-5.89Zm11-6.33-10.21,5.89v-15l10.21-5.89Zm11-6.33-10.21,5.89v-15l10.21-5.89Zm-21.93-34.41v15L131.53,260V245Zm0,16v15l-10.21,5.89v-15Zm11-22.35v15l-10.21,5.89v-15Zm0,16v15l-10.21,5.89v-15Zm11-22.35v15l-10.21,5.89v-15Zm0,16v15l-10.21,5.89v-15Z" style="fill:#fff;opacity:0.2"></path><polygon points="45.47 342.27 45.47 287.76 52.37 283.78 52.37 338.28 45.47 342.27" style="fill:#8384F6"></polygon><polygon points="56.44 335.93 56.44 288.31 63.34 284.33 63.34 331.95 56.44 335.93" style="fill:#8384F6"></polygon><polygon points="67.4 329.59 67.4 291.97 74.3 287.99 74.3 325.61 67.4 329.59" style="fill:#8384F6"></polygon><polygon points="78.37 323.26 78.37 285.63 85.27 281.65 85.27 319.27 78.37 323.26" style="fill:#8384F6"></polygon><polygon points="89.33 316.92 89.33 289.56 96.23 285.58 96.23 312.94 89.33 316.92" style="fill:#8384F6"></polygon><polygon points="100.3 310.58 100.3 267.61 107.19 263.62 107.2 306.6 100.3 310.58" style="fill:#8384F6"></polygon><polygon points="111.26 304.25 111.26 266.08 118.16 262.1 118.16 300.26 111.26 304.25" style="fill:#8384F6"></polygon><polygon points="122.22 297.91 122.22 257.15 129.12 253.17 129.13 293.93 122.22 297.91" style="fill:#8384F6"></polygon><polygon points="133.19 291.57 133.19 254.36 140.09 250.38 140.09 287.59 133.19 291.57" style="fill:#8384F6"></polygon><polygon points="144.15 285.24 144.15 253.37 151.05 249.39 151.05 281.25 144.15 285.24" style="fill:#8384F6"></polygon><polygon points="155.12 278.9 155.12 237.18 162.02 233.19 162.02 274.92 155.12 278.9" style="fill:#8384F6"></polygon></g><g id="freepik--Title--inject-5"><path d="M47.88,254.7a3.62,3.62,0,0,1,1.57-.54,1.92,1.92,0,0,1,1.13.27,1.86,1.86,0,0,1,.69.82,3.33,3.33,0,0,1,.26,1.11,1.06,1.06,0,0,1-.1.46.88.88,0,0,1-.26.3l-.93.54c-.15.08-.27.11-.34.06a.63.63,0,0,1-.21-.24,1.06,1.06,0,0,0-.6-.54,1.59,1.59,0,0,0-1.21.32,3,3,0,0,0-.65.49,3.72,3.72,0,0,0-.55.64,3.1,3.1,0,0,0-.36.73,2.38,2.38,0,0,0-.14.78,1.38,1.38,0,0,0,.13.69.53.53,0,0,0,.43.27,2.53,2.53,0,0,0,.78-.06l1.23-.28a5.25,5.25,0,0,1,1.37-.17,1.59,1.59,0,0,1,1,.32,1.71,1.71,0,0,1,.54.84,4.55,4.55,0,0,1,.18,1.39,7.13,7.13,0,0,1-.26,1.86,7.83,7.83,0,0,1-.76,1.79,8.57,8.57,0,0,1-1.21,1.59A7.48,7.48,0,0,1,48,269.39a4.37,4.37,0,0,1-1.42.55,2.16,2.16,0,0,1-1.2-.11,1.71,1.71,0,0,1-.85-.77,3.2,3.2,0,0,1-.36-1.43.87.87,0,0,1,.1-.45.75.75,0,0,1,.26-.31l.93-.53c.15-.09.27-.12.35-.08a.48.48,0,0,1,.2.25,1.94,1.94,0,0,0,.22.4.69.69,0,0,0,.36.27,1.19,1.19,0,0,0,.57,0,2.75,2.75,0,0,0,.84-.36,5.55,5.55,0,0,0,.77-.53,3.78,3.78,0,0,0,.65-.68,3.54,3.54,0,0,0,.45-.8,2.21,2.21,0,0,0,.18-.89.83.83,0,0,0-.19-.63.77.77,0,0,0-.56-.16,4.86,4.86,0,0,0-.94.15c-.37.09-.8.19-1.29.28a3.69,3.69,0,0,1-1.16.08,1.37,1.37,0,0,1-.83-.35,1.81,1.81,0,0,1-.48-.88,5.5,5.5,0,0,1-.16-1.49,7,7,0,0,1,.26-1.85,8.21,8.21,0,0,1,.74-1.75,7.83,7.83,0,0,1,1.11-1.51A6,6,0,0,1,47.88,254.7Z" style="fill:#fafafa"></path><path d="M56.92,264.21a2.61,2.61,0,0,1-.74.31,1.59,1.59,0,0,1-.57,0,1.11,1.11,0,0,1-.42-.16,1.68,1.68,0,0,1-.28-.24v4.36a1,1,0,0,1-.1.45.68.68,0,0,1-.25.31l-1,.58a.21.21,0,0,1-.26,0,.45.45,0,0,1-.1-.33V256.08a1,1,0,0,1,.1-.45.64.64,0,0,1,.26-.31l1-.59a.2.2,0,0,1,.25,0,.45.45,0,0,1,.1.33v.47c.08-.16.17-.35.28-.56a7,7,0,0,1,.42-.64,6.71,6.71,0,0,1,.57-.64,4.59,4.59,0,0,1,.74-.55,1.85,1.85,0,0,1,1.2-.29,1.53,1.53,0,0,1,.92.53,3.4,3.4,0,0,1,.6,1.19,6.51,6.51,0,0,1,.25,1.67c0,.2,0,.44,0,.71s0,.51,0,.72a10.42,10.42,0,0,1-.25,2,11.16,11.16,0,0,1-.6,1.88,7.27,7.27,0,0,1-.92,1.59A4,4,0,0,1,56.92,264.21Zm1.24-5.66a11,11,0,0,0,0-1.15c0-.85-.23-1.39-.53-1.6a1,1,0,0,0-1.11,0,2.89,2.89,0,0,0-1.09,1.23,4.87,4.87,0,0,0-.52,2c0,.21,0,.48,0,.79s0,.57,0,.76a1.9,1.9,0,0,0,.52,1.39.9.9,0,0,0,1.09,0,3,3,0,0,0,1.11-1.22A5.33,5.33,0,0,0,58.16,258.55Z" style="fill:#fafafa"></path><path d="M61.07,256.29a11.74,11.74,0,0,1,.22-2.28,10.09,10.09,0,0,1,.66-2.14,7.68,7.68,0,0,1,1-1.77,4.74,4.74,0,0,1,1.34-1.21,2.19,2.19,0,0,1,1.35-.36,1.59,1.59,0,0,1,1,.53,3,3,0,0,1,.66,1.28,6.58,6.58,0,0,1,.23,1.86v.92a1,1,0,0,1-.1.45.74.74,0,0,1-.25.31l-4.44,2.56a2,2,0,0,0,.12.76.94.94,0,0,0,.34.41.74.74,0,0,0,.49.08,1.47,1.47,0,0,0,.57-.21A2.85,2.85,0,0,0,65,257a3.27,3.27,0,0,0,.43-.59,3.65,3.65,0,0,1,.24-.36.92.92,0,0,1,.26-.21l1.06-.61a.21.21,0,0,1,.26,0,.41.41,0,0,1,.1.33,3.45,3.45,0,0,1-.21.86,6.57,6.57,0,0,1-.58,1.21,7.75,7.75,0,0,1-1,1.29,5.21,5.21,0,0,1-1.31,1.06,2.32,2.32,0,0,1-1.34.38,1.44,1.44,0,0,1-1-.54,3.29,3.29,0,0,1-.66-1.38A8.6,8.6,0,0,1,61.07,256.29Zm3.25-5a2.5,2.5,0,0,0-.65.56,3.59,3.59,0,0,0-.46.71,4.11,4.11,0,0,0-.29.78,4.31,4.31,0,0,0-.12.72l3-1.73a3.83,3.83,0,0,0-.1-.59,1.09,1.09,0,0,0-.24-.48.62.62,0,0,0-.44-.19A1.38,1.38,0,0,0,64.32,251.34Z" style="fill:#fafafa"></path><path d="M68.7,251.89a11.84,11.84,0,0,1,.22-2.29,10.79,10.79,0,0,1,.65-2.13,8.3,8.3,0,0,1,1-1.78A4.91,4.91,0,0,1,72,244.48a2.24,2.24,0,0,1,1.35-.35,1.55,1.55,0,0,1,1,.53,3,3,0,0,1,.66,1.27,6.7,6.7,0,0,1,.23,1.87v.92a1,1,0,0,1-.1.45.68.68,0,0,1-.26.31L70.43,252a2,2,0,0,0,.12.75.89.89,0,0,0,.34.41.8.8,0,0,0,.49.09,1.65,1.65,0,0,0,.57-.21,2.61,2.61,0,0,0,.69-.53,2.92,2.92,0,0,0,.44-.59,4.09,4.09,0,0,1,.24-.37,1,1,0,0,1,.25-.2l1.07-.62a.21.21,0,0,1,.26,0,.39.39,0,0,1,.1.33,3.39,3.39,0,0,1-.21.85,6.63,6.63,0,0,1-.58,1.22,7.69,7.69,0,0,1-.95,1.28A5.25,5.25,0,0,1,72,255.54a2.31,2.31,0,0,1-1.35.37,1.48,1.48,0,0,1-1-.54,3.3,3.3,0,0,1-.65-1.37A8.65,8.65,0,0,1,68.7,251.89ZM72,246.94a2.47,2.47,0,0,0-.65.55,3.25,3.25,0,0,0-.46.72,3.88,3.88,0,0,0-.29.78,4.15,4.15,0,0,0-.12.72l3-1.74a3.91,3.91,0,0,0-.1-.58,1.09,1.09,0,0,0-.24-.48.63.63,0,0,0-.44-.2A1.41,1.41,0,0,0,72,246.94Z" style="fill:#fafafa"></path><path d="M79.33,240.23a2.61,2.61,0,0,1,.74-.31,1.59,1.59,0,0,1,.57,0,1.11,1.11,0,0,1,.42.16,1.35,1.35,0,0,1,.28.24v-4.36a1,1,0,0,1,.1-.45.64.64,0,0,1,.26-.31l1-.59a.2.2,0,0,1,.25,0,.45.45,0,0,1,.1.33v13.42a1,1,0,0,1-.1.45.68.68,0,0,1-.25.31l-1,.59a.21.21,0,0,1-.26,0,.45.45,0,0,1-.1-.33v-.47c-.07.16-.17.35-.28.56a7,7,0,0,1-.42.64,6.71,6.71,0,0,1-.57.64,4.59,4.59,0,0,1-.74.55,1.84,1.84,0,0,1-1.2.29,1.53,1.53,0,0,1-.92-.53,3.4,3.4,0,0,1-.6-1.19,6.52,6.52,0,0,1-.24-1.67c0-.2,0-.44,0-.71s0-.51,0-.72a10.39,10.39,0,0,1,.24-2,11.16,11.16,0,0,1,.6-1.88,7.27,7.27,0,0,1,.92-1.59A4.08,4.08,0,0,1,79.33,240.23Zm-1.24,5.66a11,11,0,0,0,0,1.15c.06.85.23,1.39.53,1.6a1,1,0,0,0,1.11,0,2.89,2.89,0,0,0,1.09-1.23,4.87,4.87,0,0,0,.52-2c0-.21,0-.48,0-.79s0-.57,0-.77a1.89,1.89,0,0,0-.52-1.38.91.91,0,0,0-1.09,0,3,3,0,0,0-1.11,1.22A5.49,5.49,0,0,0,78.09,245.89Z" style="fill:#fafafa"></path><path d="M89.8,236.13l-1.57.91a.73.73,0,0,0-.24.57c0,.24.11.37.24.29l1.57-.9a.74.74,0,0,0,.24-.57C90,236.19,89.93,236.06,89.8,236.13Zm-1.57-2.34,1.57-.9a.75.75,0,0,0,.24-.58c0-.23-.11-.36-.24-.29l-1.57.91a.73.73,0,0,0-.24.57C88,233.74,88.1,233.87,88.23,233.79Zm7.67-3.47a3,3,0,0,0,1-2.41c0-1-.46-1.55-1-1.22a3,3,0,0,0-1,2.4C94.87,230.1,95.33,230.65,95.9,230.32Zm-6.15,4.22c0-.24-.1-.37-.24-.29l-3,1.71a.73.73,0,0,0-.24.57c0,.24.11.37.24.29l3-1.71A.71.71,0,0,0,89.75,234.54Zm6.88-1-1.34.91v-2.61L93,229c-.19-.24-.5-.08-.69.37L91,232.4a1.46,1.46,0,0,0,0,1.44c.21.19.52,0,.72-.44l.88-1.89c0-.06.07-.08.09,0l.64.63-1.8,4.21a1.82,1.82,0,0,0,0,1.62l2,2.4-2.16,1.56a1.75,1.75,0,0,0-.49,1.32c0,.52.28.76.58.54l3.27-2.39a1.71,1.71,0,0,0,.36-1.92l-1.83-2.31.88-2.09v1.44c0,.4.19.61.41.46l2.17-1.48a1.7,1.7,0,0,0,.51-1.3C97.18,233.63,96.92,233.37,96.63,233.57Zm-5.42,5a1.17,1.17,0,0,1-.19-.7l-3.79,8.94a1.81,1.81,0,0,0-.15.71.82.82,0,0,0,.15.53c.19.24.5.05.69-.4L91.58,239Z" style="fill:#fafafa"></path></g><path d="M110.14,230.9a10.46,10.46,0,0,1-.55-4,16.45,16.45,0,0,1,.55-4.64,3.9,3.9,0,0,1,1.58-2.39c.69-.4,1.21-.21,1.58.57a10.17,10.17,0,0,1,.55,4,16,16,0,0,1-.55,4.64,4,4,0,0,1-1.58,2.4C111,231.86,110.5,231.68,110.14,230.9Zm2-1.67a6.74,6.74,0,0,0,.25-1.41c.06-.64.09-1.51.09-2.59s0-1.91-.09-2.48a3.37,3.37,0,0,0-.25-1.13c-.11-.18-.24-.22-.41-.12a1.1,1.1,0,0,0-.42.6,6.88,6.88,0,0,0-.24,1.41c-.06.64-.09,1.5-.09,2.59s0,1.91.09,2.48a3.36,3.36,0,0,0,.24,1.12.28.28,0,0,0,.42.12A1,1,0,0,0,112.13,229.23Z" style="fill:#455a64"></path><path d="M116.88,227.93v-2l-2.32,1.34c-.07,0-.15-.08-.23-.35a2.94,2.94,0,0,1-.11-.73,1.11,1.11,0,0,1,0-.19l2.46-8.6a.86.86,0,0,1,.2-.38,1.87,1.87,0,0,1,.36-.27l.42-.24c.35-.2.53-.15.53.16v6.85l.39-.23c.1-.06.17,0,.22,0a1.28,1.28,0,0,1,.07.5v.24a2.12,2.12,0,0,1-.07.58.49.49,0,0,1-.22.28l-.39.23v2a.89.89,0,0,1-.53.78l-.27.16C117.06,228.3,116.88,228.25,116.88,227.93Zm0-3.65v-2.17c0-.68,0-1.41.09-2.2h0l-1.43,5.15Z" style="fill:#455a64"></path><path d="M119.3,220.26v-1.35a.91.91,0,0,1,.54-.78l.29-.17c.36-.21.54-.15.54.16v1.35a.91.91,0,0,1-.54.77l-.29.17C119.48,220.61,119.3,220.57,119.3,220.26Zm0,6.28v-1.35a.91.91,0,0,1,.54-.77l.29-.17c.36-.21.54-.16.54.14v1.35a.91.91,0,0,1-.54.79l-.29.17C119.48,226.9,119.3,226.85,119.3,226.54Z" style="fill:#455a64"></path><path d="M121.25,225.43a3.61,3.61,0,0,1-.07-.73.62.62,0,0,1,0-.26l2.35-6.61q.27-.79.39-1.26a4,4,0,0,0,.11-.87,1,1,0,0,0-.26-.82c-.17-.13-.41-.11-.7.06a2,2,0,0,0-.56.48c-.15.19-.32.42-.49.68a1.22,1.22,0,0,1-.25.34c-.12.07-.24,0-.34-.16a1.08,1.08,0,0,1-.17-.57,1.77,1.77,0,0,1,.3-.9,4.7,4.7,0,0,1,.76-.93,4.6,4.6,0,0,1,.92-.69c.66-.39,1.19-.43,1.57-.12a2.16,2.16,0,0,1,.57,1.75,6.53,6.53,0,0,1-.2,1.55,19.1,19.1,0,0,1-.69,2.1l-1.68,4.81,2.33-1.34c.09-.06.17-.05.21,0a1.06,1.06,0,0,1,.07.49v.25a1.69,1.69,0,0,1-.07.57.5.5,0,0,1-.21.29l-3.74,2.16C121.37,225.78,121.31,225.68,121.25,225.43Z" style="fill:#455a64"></path><path d="M127.18,222.08a1.43,1.43,0,0,1-.77-.94,6.56,6.56,0,0,1-.28-2.17,14.76,14.76,0,0,1,.68-4.62,14.11,14.11,0,0,1,1.5-3.26,5.56,5.56,0,0,1,1.13-1.4c.14-.08.25,0,.34.24a2.14,2.14,0,0,1,.13.66.88.88,0,0,1,0,.2.59.59,0,0,1-.1.16,8.38,8.38,0,0,0-1.37,2.18,10.52,10.52,0,0,0-.76,2.61,2.93,2.93,0,0,1,1-1,1,1,0,0,1,.83-.12,1.15,1.15,0,0,1,.66.74,4.51,4.51,0,0,1,.26,1.75,7.66,7.66,0,0,1-.29,2.15,5.68,5.68,0,0,1-.78,1.64,3.54,3.54,0,0,1-1.06,1A1.22,1.22,0,0,1,127.18,222.08Zm1.68-2.66a4.23,4.23,0,0,0,.24-1.49,2,2,0,0,0-.25-1.18.44.44,0,0,0-.64-.1,2.07,2.07,0,0,0-.71.75c0,.21,0,.52,0,.93a4.23,4.23,0,0,0,.22,1.71c.15.29.34.36.57.23A1.64,1.64,0,0,0,128.86,219.42Z" style="fill:#455a64"></path><path d="M140.25,206.87a2.81,2.81,0,0,1,.32,1.6v5.79a.91.91,0,0,1-.54.78l-.26.15c-.36.21-.54.15-.54-.16v-5.38a1.57,1.57,0,0,0-.12-.74q-.12-.21-.39-.06a1.11,1.11,0,0,0-.37.4,3.44,3.44,0,0,0-.29.64v5.82a.91.91,0,0,1-.54.78l-.28.16c-.36.2-.53.15-.53-.16v-5.38a1.62,1.62,0,0,0-.13-.75c-.08-.14-.21-.15-.38-.05a1,1,0,0,0-.4.46,3.58,3.58,0,0,0-.27.65v5.74a.76.76,0,0,1-.13.44,1.26,1.26,0,0,1-.4.34l-.28.16c-.35.21-.53.15-.53-.16v-5.37a14.8,14.8,0,0,0-.05-1.58c0-.3,0-.48,0-.53a.89.89,0,0,1,.36-.6,4.22,4.22,0,0,1,.64-.49c.12-.07.2-.05.24,0a1.32,1.32,0,0,1,.09.41c0,.17,0,.31.05.41a5.64,5.64,0,0,1,.58-1.21,2.25,2.25,0,0,1,.77-.79.78.78,0,0,1,.7-.11.83.83,0,0,1,.42.64,4.92,4.92,0,0,1,.6-1.19,2.42,2.42,0,0,1,.81-.79C139.73,206.56,140,206.59,140.25,206.87Z" style="fill:#455a64"></path><path d="M141.84,213.52V205.9a.91.91,0,0,1,.56-.79l.21-.13c.37-.21.56-.16.56.15v7.63a.94.94,0,0,1-.56.79l-.21.12C142,213.89,141.84,213.84,141.84,213.52Zm0-9.61V203c0-.32.21-.59.63-.84s.65-.21.65.1v.91c0,.32-.22.59-.64.84S141.88,204.22,141.88,203.91Z" style="fill:#455a64"></path><path d="M144.48,212v-5.36a14,14,0,0,0-.06-1.58c0-.31,0-.49,0-.54a.86.86,0,0,1,.37-.59,3.19,3.19,0,0,1,.63-.49c.12-.07.2-.06.25,0a1.68,1.68,0,0,1,.09.41c0,.18,0,.32,0,.41a5.66,5.66,0,0,1,.59-1.21,2.18,2.18,0,0,1,.78-.79c.4-.24.71-.21.92.06a2.72,2.72,0,0,1,.32,1.58v5.82a.91.91,0,0,1-.54.78l-.26.15c-.37.21-.55.16-.55-.15v-5.42a1.47,1.47,0,0,0-.12-.72c-.08-.13-.21-.14-.4,0a1.06,1.06,0,0,0-.38.42,2.78,2.78,0,0,0-.29.7v5.74a.74.74,0,0,1-.14.43,1.17,1.17,0,0,1-.4.35l-.28.16C144.65,212.37,144.48,212.31,144.48,212Z" style="fill:#455a64"></path><path d="M148.75,210.9a2.44,2.44,0,0,1,0-.3l2.52-13.09a1,1,0,0,1,.48-.7l.21-.12c.25-.14.37-.1.37.13,0,0,0,.13,0,.31l-2.51,13.05a1,1,0,0,1-.49.72l-.2.12C148.88,211.16,148.75,211.12,148.75,210.9Z" style="fill:#455a64"></path><path d="M157,205c0,.16-.17.34-.5.53l-.47.27a.5.5,0,0,1-.26.1c-.06,0-.1-.06-.13-.15l-1.18-3.14-.1.06v3.63a.89.89,0,0,1-.53.77l-.27.16c-.36.2-.53.15-.53-.16V195.74a.9.9,0,0,1,.53-.77l.27-.15c.35-.2.53-.15.53.15v6.94l.05,0,1.12-4.06a1,1,0,0,1,.14-.31,1.25,1.25,0,0,1,.28-.21l.43-.25c.33-.19.5-.2.5,0a2.44,2.44,0,0,1-.07.38l-1.19,4.16,1.31,3.18A1.06,1.06,0,0,1,157,205Z" style="fill:#455a64"></path><path d="M163.77,193.29a2.73,2.73,0,0,1,.32,1.6v5.78a.91.91,0,0,1-.54.79l-.26.15c-.36.21-.54.15-.54-.16v-5.38a1.57,1.57,0,0,0-.12-.74q-.12-.21-.39-.06a1.21,1.21,0,0,0-.37.4,3.44,3.44,0,0,0-.29.64v5.82a.91.91,0,0,1-.54.78l-.27.15q-.54.31-.54-.15v-5.39a1.62,1.62,0,0,0-.12-.74c-.08-.14-.21-.15-.39-.05a1.09,1.09,0,0,0-.4.46,3.27,3.27,0,0,0-.26.65v5.74a.77.77,0,0,1-.14.44,1.15,1.15,0,0,1-.4.34l-.28.16c-.35.2-.52.15-.52-.16V199a14.08,14.08,0,0,0-.06-1.58c0-.3,0-.48,0-.53a.89.89,0,0,1,.36-.6,4.78,4.78,0,0,1,.64-.49c.12-.07.2,0,.25.05a1.35,1.35,0,0,1,.08.41c0,.17,0,.31.05.41a6.16,6.16,0,0,1,.58-1.21,2.43,2.43,0,0,1,.77-.79.8.8,0,0,1,.71-.11.83.83,0,0,1,.41.64,5.31,5.31,0,0,1,.6-1.19,2.42,2.42,0,0,1,.81-.79C163.25,193,163.56,193,163.77,193.29Z" style="fill:#455a64"></path></g><g id="freepik--Line--inject-5"><path d="M172.86,319.43H148.07a.45.45,0,0,1-.2,0l-18.94-8.11a.5.5,0,0,1-.27-.65.51.51,0,0,1,.66-.27l18.85,8.07h24.69a.5.5,0,0,1,.5.5A.5.5,0,0,1,172.86,319.43Z" style="fill:#8384F6"></path><path d="M175.4,318.93a2.54,2.54,0,1,1-2.54-2.54A2.53,2.53,0,0,1,175.4,318.93Z" style="fill:#8384F6"></path></g></g></g><g id="freepik--chart-1--inject-5"><g id="freepik--chart--inject-5"><g id="freepik--chart--inject-5"><g id="freepik--window--inject-5"><path d="M175.17,34.82c0-2-.72-3.36-1.86-4h0l-4.78-2.73h0c-1.11-.68-2.65-.61-4.37.38L35,103.05a13.48,13.48,0,0,0-6.09,10.56v91.27c0,2,.69,3.33,1.81,4h0l4.89,2.79h0c1.1.64,2.63.55,4.31-.42l129.15-74.56a13.48,13.48,0,0,0,6.09-10.56Z" style="fill:#8384F6;opacity:0.4"></path><path d="M175.17,34.82v91.29a13.43,13.43,0,0,1-6.1,10.55L39.93,211.22c-3,1.73-5.48.67-6-2.32a5.61,5.61,0,0,0,1.08-.49l129.14-74.55a13.48,13.48,0,0,0,6.09-10.56V32a6.73,6.73,0,0,0-.1-1.23C173,29.73,175.17,31.36,175.17,34.82Z" style="fill:#8384F6;opacity:0.4"></path><path d="M169.07,31.3,54.51,98.72l-8.32,4.78s-4.4,2.37-6.16,3.58a10.16,10.16,0,0,0-1.64,1.39,12.53,12.53,0,0,0-3.48,7.88l0,9.58-1,81.77-1.06-81.77v-9.6a14.59,14.59,0,0,1,4-9.34,12.27,12.27,0,0,1,2-1.71c1.81-1.26,6.27-3.67,6.27-3.67l8.3-4.81Z" style="fill:#fff"></path></g><g id="freepik--chart--inject-5"><g style="opacity:0.30000000000000004"><polygon points="164.63 127.78 44.1 197.36 44.1 132.68 164.63 63.09 164.63 61.71 43.84 131.44 43.06 131.89 43.06 199.35 164.63 129.16 164.63 127.78" style="fill:#fff"></polygon><polygon points="164.63 105.75 43.84 175.49 43.32 177.18 164.63 107.14 164.63 105.75" style="fill:#fff"></polygon><polygon points="164.63 83.73 43.84 153.47 43.32 155.15 164.63 85.12 164.63 83.73" style="fill:#fff"></polygon><polygon points="164.63 128.13 163.59 129.42 163.59 63.35 164.63 62.05 164.63 128.13" style="fill:#fff"></polygon><polygon points="149.56 136.82 148.52 138.12 148.52 72.05 149.56 70.75 149.56 136.82" style="fill:#fff"></polygon><polygon points="134.5 145.52 133.46 146.82 133.46 80.74 134.5 79.45 134.5 145.52" style="fill:#fff"></polygon><polygon points="119.43 154.22 118.39 155.51 118.39 89.44 119.43 88.15 119.43 154.22" style="fill:#fff"></polygon><polygon points="104.37 162.92 103.33 164.21 103.33 98.14 104.37 96.84 104.37 162.92" style="fill:#fff"></polygon><polygon points="89.3 171.62 88.26 172.91 88.26 106.84 89.3 105.54 89.3 171.62" style="fill:#fff"></polygon><polygon points="74.23 180.31 73.19 181.61 73.19 115.53 74.23 114.24 74.23 180.31" style="fill:#fff"></polygon><polygon points="59.17 189.01 58.13 190.31 58.13 124.23 59.17 122.94 59.17 189.01" style="fill:#fff"></polygon></g><path d="M43.56,188.86h0a.5.5,0,0,1-.5-.5.49.49,0,0,1,.51-.5h0c.38,0,.55-1.27.66-2,.14-1,.26-1.87.77-2.23a.54.54,0,0,1,.41-.08,5.34,5.34,0,0,0,.16-.53c.09-.3.17-.59.27-.83a6.32,6.32,0,0,1,.44-.87,3.85,3.85,0,0,0,.52-1.25c.07-.35.12-1.09.18-1.86a11.21,11.21,0,0,1,.52-3.53c.11-.2.39-.74.91-.65s.6.69.68,1.25c0,.15,0,.27,0,.35a2,2,0,0,1,.09.61c0,.07,0,.17,0,.25h.17a.5.5,0,0,1,.42.32A4.26,4.26,0,0,1,50,178a2.9,2.9,0,0,0,.09.91.38.38,0,0,0,.09.15l.06,0c0-.42,0-.87.05-1.32,0-1.33,0-2.94,1.36-3.36v-1.18a20.2,20.2,0,0,1,.32-4.31,1.47,1.47,0,0,1,.47-.86.47.47,0,0,0,.16-.3,1.7,1.7,0,0,0,0-.5,3,3,0,0,1,0-.73c0-.25.06-.47.08-.67a3.72,3.72,0,0,1,.7-2.09.47.47,0,0,1,.39-.22,2.44,2.44,0,0,0,0-.26.52.52,0,0,1,.23-.46.53.53,0,0,1,.52,0c.57.34.67,1.26.77,2.34a7.22,7.22,0,0,0,.26,1.53,15,15,0,0,0,.4-2.27l0-.17a.5.5,0,0,1,.46-.44A.79.79,0,0,1,57,164a1,1,0,0,1,.28.78v.1l.21.08a.52.52,0,0,1,.42.15h0c.08.09.17.22.28.37a4.06,4.06,0,0,0,.25.35,14.53,14.53,0,0,0,.07-2.18,13.6,13.6,0,0,1,.09-2.44,6,6,0,0,1,.73-2.08,8.23,8.23,0,0,0,.46-1,14.2,14.2,0,0,0,.61-3.59,12.24,12.24,0,0,1,1.17-5,.52.52,0,0,1,.48-.26.46.46,0,0,1,.31.15c.31-.47.65-.79,1.09-.73.75.11.92,1.15,1.16,2.59A11.54,11.54,0,0,0,65,153h0a.51.51,0,0,1,.48-.19.47.47,0,0,1,.39.34,14.94,14.94,0,0,1,.52,2.84c0,.1,0,.2,0,.3a.92.92,0,0,1,.67.23c0-.13.08-.3.13-.53a9.56,9.56,0,0,0,0-1.82c-.09-1.89-.11-3.17.51-3.69a.91.91,0,0,1,.38-.19,7.71,7.71,0,0,0,.24-.82c.19-.76.4-1.61,1.28-1.73.43-.06.72.17.85.69a.58.58,0,0,1,.26,0l0-.1a10.67,10.67,0,0,0,.22-1.68,8.29,8.29,0,0,1,.56-2.77c.33-.69.76-1.07,1.23-1a1.42,1.42,0,0,1,1.15,1,1.18,1.18,0,0,1,.64-.84.38.38,0,0,1,.1,0,1.35,1.35,0,0,1,.3-.55.78.78,0,0,1,.66-.24c.49.07.77.59,1,1l.07.12.1.2c0-.09,0-.19.06-.26.09-.47.18-.88.5-1.06a.72.72,0,0,1,.39-.08.34.34,0,0,0,0-.1,1.41,1.41,0,0,1,.54-1.29.62.62,0,0,1,.59-.06,6.4,6.4,0,0,0,.23-1.74c0-.12,0-.26,0-.42a2.92,2.92,0,0,1,.2-1.75c.28-.46.59-.51.8-.47.51.11.6.74.64,1.05l.11.76c.11.74.23,1.51.28,2.33v.19a2.83,2.83,0,0,0,.37,1.65,2.06,2.06,0,0,1,.55,1.5,3.13,3.13,0,0,0,.35,1.4,2.14,2.14,0,0,1,.44,1.08c0,.12,0,.25.09.4h0a1,1,0,0,1,.51.05c.06-.19.14-.45.23-.79l0-.15c0-.18.1-.47.16-.81a4.89,4.89,0,0,1,.76-2.42.59.59,0,0,1,.43-.2c0-.16,0-.38,0-.48l0-.59c.07-.74.13-1.39.62-1.61a.61.61,0,0,1,.24-.06c.32-.93.71-2,1.61-1.9s1.06,1.31,1.25,2.47a9.5,9.5,0,0,0,.19,1l.06-.2.07-.28a2.71,2.71,0,0,1,.2-.68.84.84,0,0,1,.35-.34,4.69,4.69,0,0,0,.42-2.22,9.8,9.8,0,0,1,.09-1.25,21,21,0,0,1,.86-3.25l.16-.48c.09-.3.18-.71.27-1.15a7.48,7.48,0,0,1,.64-2.12.54.54,0,0,1,.42-.24.65.65,0,0,1,.43.24,6.72,6.72,0,0,1,.61,3.08c0,.36,0,.72.07,1.06a2.63,2.63,0,0,0,.26,1,.75.75,0,0,0,.18.17,1.37,1.37,0,0,1,.55.74,5.45,5.45,0,0,1,.1,1.54,7.29,7.29,0,0,0,0,.95,8,8,0,0,0,.32,1.59l.24,0c1-.11,1.17.56,1.37,1.21a1.8,1.8,0,0,0,.37.67,2.79,2.79,0,0,1,.24.31,4.25,4.25,0,0,1,.48,2l.16,2c.08.92.15,1.84.23,2.76,0,.2,0,.46,0,.76a10.78,10.78,0,0,0,.31,2.67,18.25,18.25,0,0,0,.18-4.08,11.6,11.6,0,0,1,0-1.17,4.46,4.46,0,0,1,.51-1.66q.1-.19.21-.42a6.26,6.26,0,0,0,.34-2.49v-.14c0-.14,0-.31,0-.5a7.33,7.33,0,0,1,.33-3.13.88.88,0,0,1,.75-.53.64.64,0,0,1,.49.31h.1c.14-.07.24-.54.29-.83.17-.8.28-1.52.39-2.23s.23-1.44.37-2.16.26-1.23.87-1.51a.68.68,0,0,1,.41-.05,6.09,6.09,0,0,0,.38-1.12,5,5,0,0,1,.43-1.22,1.76,1.76,0,0,1,.27-.37.42.42,0,0,0,.1-.12,2.44,2.44,0,0,0,.35-.84l.11-.37a6.73,6.73,0,0,1,1.35-2.59.74.74,0,0,1,1-.12c.08-.22.16-.55.21-.73s.12-.42.16-.54a3.78,3.78,0,0,1,.76-1.37,1.48,1.48,0,0,1,1.65-.42c1.19.51,1.42,2.55,1.61,4.36,0,.38.09.74.13,1.06a3.15,3.15,0,0,0,.31,1.18s0,.06.09.1a1.19,1.19,0,0,1,.38.55,7.11,7.11,0,0,1,.17,2.1c0,.34,0,.67,0,.95l0,.42a11.7,11.7,0,0,0,.27,2.29c.06.23.15.44.23.66a6.71,6.71,0,0,1,.37,1.24c0,.27.08.54.11.8a7.66,7.66,0,0,0,.31,1.61c0,.13.09.32.14.54s.12.45.19.65a.55.55,0,0,1,.29,0l.11,0a10.48,10.48,0,0,0,.35-2l0-.4c.07-.68.18-1.62.94-1.89a.68.68,0,0,1,.76.22c0-.14,0-.31,0-.52V135c0-.4,0-.81,0-1.21a9.7,9.7,0,0,1,.24-2.42,3.24,3.24,0,0,1,.42-.94,1.21,1.21,0,0,0,.25-.83c0-.93,0-1.85,0-2.77,0-1.3,0-2.6,0-3.91v-.45a10,10,0,0,1,.06-1.33c0-.24.08-.49.13-.73a5,5,0,0,0,.16-1.12,4.11,4.11,0,0,1,.27-1.37,4.39,4.39,0,0,0,.18-.58l0-.19c.14-.75.32-1.44.84-1.63a.77.77,0,0,1,.79.16,2.24,2.24,0,0,1,.57,1.69,2.48,2.48,0,0,0,.13.83l.11.21a3,3,0,0,1,.47,1.79c0,.27,0,.57,0,.87a5.18,5.18,0,0,0,.08,1.72,2.68,2.68,0,0,0,.28.49,2.43,2.43,0,0,1,.52,1.23c0,.15,0,.3,0,.44a1.59,1.59,0,0,0,0,.41.46.46,0,0,0,.17.1,1.34,1.34,0,0,1,.56.41,1.28,1.28,0,0,1,.21.44,7.29,7.29,0,0,0,.15-.78,6.72,6.72,0,0,0,0-1.48,5,5,0,0,1,.35-3,3.12,3.12,0,0,1,.32-.44,1.72,1.72,0,0,0,.31-.48,6.12,6.12,0,0,0,.29-1.39l0-.2c0-.41.09-.81.13-1.21a13.33,13.33,0,0,1,.46-2.77c.06-.2.14-.39.21-.59a5.67,5.67,0,0,0,.22-.66,6,6,0,0,0,.15-1.21c0-.16,0-.31,0-.46a7.94,7.94,0,0,1,.74-2.49,13,13,0,0,0,.48-1.26,14.55,14.55,0,0,0,.48-2.67,11.69,11.69,0,0,1,1-4.08c.12-.22.47-.89,1.08-.79.8.12,1.08,1.43,1.39,3.27.06.32.1.58.13.68s.14.2.3.31a1.57,1.57,0,0,1,.68.73,4.54,4.54,0,0,1,.23,1.66c0,.21,0,.41,0,.58a42.77,42.77,0,0,0,1.19,6.21l.2.83c.06.27.11.58.16.91a4.82,4.82,0,0,0,.31,1.35c1,1.56,1.14,3.76,1.33,6.08,0,.27,0,.55.07.82,0-.07,0-.13,0-.2a2.5,2.5,0,0,1,.42-1,.92.92,0,0,1,.29-.25,8.35,8.35,0,0,0,.16-1.72c0-.16,0-.3,0-.39s0-.45,0-.68a5.77,5.77,0,0,1,.16-1.78A1.34,1.34,0,0,1,138,117a.89.89,0,0,0,.14-.13,4,4,0,0,0,.32-1.1c.17-.81.31-1.5.84-1.71a.8.8,0,0,1,.79.11.76.76,0,0,1,.2.2.65.65,0,0,1,.33-.06.8.8,0,0,1,.55.44,3.92,3.92,0,0,1,.31.81l.1.28a13.55,13.55,0,0,0-.07-1.37l0-.19a6.79,6.79,0,0,1,.1-1.85c.1-.6.24-1.2.37-1.8a21,21,0,0,0,.51-2.73l0-.27a4.91,4.91,0,0,1,.37-1.89c.1-.17.31-.56.72-.56h0a.53.53,0,0,1,.26.06c.08-.26.16-.63.21-.88.19-.92.35-1.72.89-2a.62.62,0,0,1,.58,0,.67.67,0,0,1,.33.38h0a1,1,0,0,1,.86-.29c.42.11.56.52.66.81,0,0,0,0,0,0a12.48,12.48,0,0,0,.6-3c.23-1.9.37-2.91,1-3.2a.77.77,0,0,1,.77.06,1.23,1.23,0,0,1,.45.76.73.73,0,0,1,.21-.06c.21,0,.62.06.92.67a10.58,10.58,0,0,1,.78,3.63l0,.38c.06.55.14,1.09.22,1.62.12.84.25,1.71.3,2.63l0,.75c0,.63,0,1.25.11,1.85,0,.21,0,.46,0,.73a5.69,5.69,0,0,0,.11,1.2,6.69,6.69,0,0,0,.78-1.4l.14-.33c.17-.36.33-.74.5-1.13a19.41,19.41,0,0,1,.85-1.85,2.11,2.11,0,0,1,.18-.27.84.84,0,0,0,.15-.26,1.71,1.71,0,0,0,.08-.34,1.79,1.79,0,0,1,.35-.91.69.69,0,0,1,.66-.27.62.62,0,0,1,.38.23,3.4,3.4,0,0,0,.1-.5c.12-.69.28-1.55,1.05-1.76a1.44,1.44,0,0,1,1.17.29c.13.08.3.19.36.16.25-.12.31-1,.35-1.51a5.9,5.9,0,0,1,.18-1.29,4.75,4.75,0,0,1,.77-1.43,1,1,0,0,1,.25-.23l.08-.07s.07-.17.1-.25a2.43,2.43,0,0,1,.19-.42,2.22,2.22,0,0,1,.65-.65,1.5,1.5,0,0,0,.49-.51.5.5,0,0,1,.68-.21.51.51,0,0,1,.2.68,2.29,2.29,0,0,1-.78.84,1.57,1.57,0,0,0-.39.38,1.08,1.08,0,0,0-.1.24,2.37,2.37,0,0,1-.23.48,1.13,1.13,0,0,1-.3.29,3.64,3.64,0,0,0-.66,1.16,5.56,5.56,0,0,0-.13,1.06c-.07.92-.15,2-.91,2.34a1.32,1.32,0,0,1-1.32-.21c-.14-.09-.33-.19-.38-.17s-.27.62-.33,1a2.36,2.36,0,0,1-.67,1.56.67.67,0,0,1-.58.13.65.65,0,0,1-.26-.14,2.6,2.6,0,0,1-.12.46,1.88,1.88,0,0,1-.27.45l-.12.18a18.85,18.85,0,0,0-.8,1.75c-.17.4-.33.79-.51,1.17l-.14.31c-.46,1-1,2.13-1.83,2s-.95-1.27-1-2.23c0-.24,0-.46,0-.65-.07-.62-.09-1.26-.12-1.91l0-.74c-.05-.88-.17-1.72-.29-2.53-.08-.55-.16-1.1-.22-1.66l0-.38a10.11,10.11,0,0,0-.68-3.29h0a.65.65,0,0,1-.62.12.93.93,0,0,1-.51-.68c-.13.52-.23,1.38-.31,2-.27,2.24-.49,3.63-1.32,4a.81.81,0,0,1-.65,0,1.24,1.24,0,0,1-.58-.81h0l-.07.08a.84.84,0,0,1-.63.39.64.64,0,0,1-.54-.22l0,0c0,.24-.11.51-.15.71-.21,1-.37,1.78-1,1.93a.58.58,0,0,1-.41,0,8.13,8.13,0,0,0-.17,1.25l0,.3a23.76,23.76,0,0,1-.53,2.85c-.13.59-.27,1.17-.37,1.75a5.76,5.76,0,0,0-.08,1.6l0,.18c.13,1.4.12,2.44-.33,3a.62.62,0,0,1-.61.23c-.49-.1-.72-.72-1-1.7l-.13-.41-.11,0a.69.69,0,0,1-.67-.3c-.07.23-.13.56-.18.78a3.88,3.88,0,0,1-.51,1.51,1.47,1.47,0,0,1-.32.31.37.37,0,0,0-.17.27,4.75,4.75,0,0,0-.12,1.47c0,.26,0,.52,0,.75s0,.21,0,.36a6.32,6.32,0,0,1-.27,2.16.73.73,0,0,1-.4.43,1.8,1.8,0,0,0-.22.63,2.29,2.29,0,0,1-.49,1.12.87.87,0,0,1-.92.32c-.33-.12-.53-.45-.58-1s-.07-.81-.1-1.22c-.18-2.2-.35-4.28-1.18-5.63a5,5,0,0,1-.45-1.74c0-.29-.09-.58-.14-.81l-.2-.83a42.6,42.6,0,0,1-1.21-6.35q0-.3,0-.66a4,4,0,0,0-.15-1.28c-.06-.14-.13-.18-.3-.29a1.57,1.57,0,0,1-.69-.8,4.7,4.7,0,0,1-.18-.87,13,13,0,0,0-.54-2.29l-.06.11a11.15,11.15,0,0,0-.89,3.73,15.9,15.9,0,0,1-.51,2.85c-.15.48-.34.93-.52,1.36a7.29,7.29,0,0,0-.67,2.19l0,.43a7.68,7.68,0,0,1-.18,1.39,7.83,7.83,0,0,1-.25.78,5.27,5.27,0,0,0-.19.51,12.62,12.62,0,0,0-.43,2.59c0,.4-.07.82-.13,1.25l0,.19a6.93,6.93,0,0,1-.35,1.62,2.7,2.7,0,0,1-.47.76,2.21,2.21,0,0,0-.22.29,4.1,4.1,0,0,0-.22,2.37,8.25,8.25,0,0,1,0,1.72c-.18,1.23-.43,1.81-.86,2a.71.71,0,0,1-.7-.06,1.34,1.34,0,0,1-.47-.83,1.44,1.44,0,0,0-.12-.32.57.57,0,0,0-.17-.1,1.34,1.34,0,0,1-.61-.48A1.67,1.67,0,0,1,122,125c0-.11,0-.23,0-.34a1.54,1.54,0,0,0-.34-.78,3.09,3.09,0,0,1-.41-.71,5.8,5.8,0,0,1-.14-2.12c0-.28,0-.56,0-.81a2.19,2.19,0,0,0-.34-1.32l-.12-.22a3.07,3.07,0,0,1-.25-1.23,4.18,4.18,0,0,0-.08-.72c-.06.22-.11.49-.14.61a2.35,2.35,0,0,1,0,.24c-.06.25-.14.47-.21.68a3,3,0,0,0-.22,1,6.37,6.37,0,0,1-.18,1.33c0,.22-.09.44-.12.66a9.08,9.08,0,0,0,0,1.18V123c0,1.3,0,2.59,0,3.88,0,.93,0,1.86,0,2.78a2.22,2.22,0,0,1-.4,1.37,2,2,0,0,0-.31.66,9.28,9.28,0,0,0-.2,2.17c0,.43,0,.87,0,1.29v.11a3.08,3.08,0,0,1-.38,1.62.66.66,0,0,1-.56.25.89.89,0,0,1-.67-.51,5.68,5.68,0,0,0-.15.87l0,.39c-.19,1.72-.42,2.77-1,3.06a.78.78,0,0,1-.5,0,.56.56,0,0,1-.17-.11.65.65,0,0,1-.63-.14,2.73,2.73,0,0,1-.55-1.35c0-.18-.09-.34-.13-.46a8.43,8.43,0,0,1-.35-1.8c0-.25-.07-.51-.11-.77a4.64,4.64,0,0,0-.32-1c-.09-.25-.18-.49-.25-.75a12.14,12.14,0,0,1-.31-2.51l0-.41c0-.3,0-.65,0-1a7.61,7.61,0,0,0-.11-1.77s0-.05-.12-.13a2.36,2.36,0,0,1-.24-.27,3.79,3.79,0,0,1-.47-1.61c0-.33-.09-.7-.13-1.09-.14-1.3-.36-3.27-1-3.55-.11-.05-.31,0-.52.19a2.8,2.8,0,0,0-.55,1c0,.1-.08.27-.13.45a3.21,3.21,0,0,1-.61,1.46.7.7,0,0,1-1,0,6.58,6.58,0,0,0-1,2l-.1.34a3.25,3.25,0,0,1-.48,1.14,1.56,1.56,0,0,1-.21.26.74.74,0,0,0-.12.16,5.11,5.11,0,0,0-.34,1,3.19,3.19,0,0,1-.83,1.76.68.68,0,0,1-.58.12,2.1,2.1,0,0,0-.22.74c-.15.71-.26,1.41-.37,2.12s-.23,1.45-.38,2.18-.35,1.71-1.2,1.73l-.09.08a.54.54,0,0,1-.46.1l-.13-.06a10.86,10.86,0,0,0-.08,2.19c0,.21,0,.4,0,.53v.15a7,7,0,0,1-.43,2.89l-.22.46a3.48,3.48,0,0,0-.42,1.32c0,.14,0,.58,0,1,.11,3.4,0,5-1,5.2a.86.86,0,0,1-.72-.19c-.63-.52-.72-1.85-.77-3.54,0-.28,0-.53,0-.71-.07-.92-.15-1.84-.23-2.76l-.16-2a4.11,4.11,0,0,0-.3-1.54l-.2-.25a2.55,2.55,0,0,1-.54-1,3.25,3.25,0,0,0-.19-.55h-.13l-.17,0a.86.86,0,0,1-1.1-.62,9.25,9.25,0,0,1-.39-1.84,9.84,9.84,0,0,1,0-1.09,5.17,5.17,0,0,0-.06-1.24c0-.09-.07-.13-.2-.23a1.56,1.56,0,0,1-.42-.43,3.44,3.44,0,0,1-.41-1.47c0-.35,0-.73-.07-1.11s0-.72-.07-1.06a2.38,2.38,0,0,0,0,.26c-.1.46-.19.89-.3,1.25l-.16.48a18.9,18.9,0,0,0-.82,3.1,9.08,9.08,0,0,0-.09,1.12,5.19,5.19,0,0,1-.62,2.81.72.72,0,0,1-.27.24c0,.11-.06.26-.1.39a3.52,3.52,0,0,1-.09.36c-.19.58-.43,1.21-1,1.25s-.76-.49-.85-.66a6.81,6.81,0,0,1-.36-1.52,5.5,5.5,0,0,0-.39-1.6,5.32,5.32,0,0,0-.58,1.32l-.12.33a.49.49,0,0,1-.32.31.49.49,0,0,1-.24,0c0,.2-.06.47-.08.66l0,.58a2.1,2.1,0,0,1-.34,1.22.57.57,0,0,1-.51.21A11.69,11.69,0,0,0,84.8,145a8.05,8.05,0,0,1-.18.91l0,.13c-.37,1.39-.57,1.8-.94,1.92a.73.73,0,0,1-.5-.06.65.65,0,0,1-.27-.38c-.28,0-.78,0-1-.75l-.1-.46a1.32,1.32,0,0,0-.24-.65,3.66,3.66,0,0,1-.56-1.9c-.07-.68-.08-.72-.28-.92a3.44,3.44,0,0,1-.65-2.29v-.18c0-.24,0-.48-.06-.71a4.47,4.47,0,0,1-.35,1.49.88.88,0,0,1-.6.54.65.65,0,0,1-.35,0c0,.1,0,.2,0,.28a1.88,1.88,0,0,1-.21.95c-.08.13-.31.48-.68.44h0c-.12.54-.23,1.1-.66,1.34a.64.64,0,0,1-.54.06c-.37-.12-.57-.54-.73-.88a.68.68,0,0,0-.08-.15l-.08-.16-.13-.23s0,.06,0,.09a1.35,1.35,0,0,1-.58.94.46.46,0,0,1-.21.05,1.49,1.49,0,0,1-.3.57.75.75,0,0,1-.73.28c-.42-.1-.54-.51-.63-.79,0-.05,0-.09,0-.13a1.1,1.1,0,0,0-.34-.52,2.11,2.11,0,0,0-.28.45A7.2,7.2,0,0,0,72,146.7a11.19,11.19,0,0,1-.25,1.83c-.13.5-.21,1-.83.94h-.11a.43.43,0,0,1-.23.14.55.55,0,0,1-.75-.15,1.07,1.07,0,0,1-.26-.56,5.37,5.37,0,0,0-.24.78,6.11,6.11,0,0,1-.43,1.29.5.5,0,0,1-.55.27c-.25.24-.16,2-.12,2.86a9,9,0,0,1,0,2.09c-.22,1-.39,1.41-.81,1.53a.78.78,0,0,1-.77-.32.92.92,0,0,0-.15-.14l-.12.09a.48.48,0,0,1-.5.09.46.46,0,0,1-.32-.39c0-.31-.09-.64-.13-1-.08-.68-.17-1.38-.3-2a.74.74,0,0,1-.33,0c-.71-.18-.87-1.2-1.1-2.61a12.85,12.85,0,0,0-.33-1.6,4.88,4.88,0,0,0-.46.83.52.52,0,0,1-.52.28.51.51,0,0,1-.24-.1,13.73,13.73,0,0,0-.67,3.75,15.11,15.11,0,0,1-.67,3.84,9.21,9.21,0,0,1-.51,1.12,4.93,4.93,0,0,0-.63,1.76,13.45,13.45,0,0,0-.08,2.28,13.08,13.08,0,0,1-.17,2.93.51.51,0,0,1-.25.34c-.83.45-1.44-.43-1.73-.85L57.3,166a2.17,2.17,0,0,1-.54-.21,10.86,10.86,0,0,1-.34,1.45.44.44,0,0,1-.18.26,1,1,0,0,1-1.09.2c-.66-.29-.76-1.27-.87-2.4,0-.18,0-.41-.07-.63a.78.78,0,0,1-.21,0,2.87,2.87,0,0,0-.36,1.35c0,.22,0,.46-.08.74a2,2,0,0,0,0,.48,2.63,2.63,0,0,1,0,.79,1.34,1.34,0,0,1-.43.8.61.61,0,0,0-.21.38,19.82,19.82,0,0,0-.29,4.09c0,.55,0,1.09,0,1.6a.5.5,0,0,1-.45.48c-.81.09-.89.82-.9,2.46a8,8,0,0,1-.26,2.42.49.49,0,0,1-.47.34h0a.51.51,0,0,1-.47-.33.77.77,0,0,0-.06-.14,1.11,1.11,0,0,1-.85-.75A3.52,3.52,0,0,1,49,178c0-.21,0-.43,0-.62a.8.8,0,0,1-.6-.44,2.09,2.09,0,0,1-.13-.72,2.45,2.45,0,0,0,0-.32l0,0c-.1.68-.17,1.63-.22,2.34a16.1,16.1,0,0,1-.19,2,4.61,4.61,0,0,1-.63,1.55,5.1,5.1,0,0,0-.38.74,6.28,6.28,0,0,0-.23.73,3.18,3.18,0,0,1-.93,1.8.62.62,0,0,1-.27.09c0,.28-.09.58-.12.82C45,187.25,44.8,188.86,43.56,188.86Zm4.93-14ZM70.9,149.23h0Zm7-6.38Zm.81-2Zm57.73-16.35Zm7.35-18.35Z" style="fill:#8384F6"></path><g id="freepik--Label--inject-5"><path d="M125,107.7l-9.27,5.35c-.43.25-.79-.09-.79-.76v-5.2a2.1,2.1,0,0,1,.79-1.68l9.27-5.35,2.53,2.36Z" style="fill:#fafafa"></path><path d="M117.5,110.75a.54.54,0,0,1,0-.22v-.11a.81.81,0,0,1,0-.25.16.16,0,0,1,.09-.12l.54-.32v-3.44l-.56.46s-.08,0-.1-.11a1.69,1.69,0,0,1,0-.33.3.3,0,0,1,.1-.24l1-.88a.17.17,0,0,1,.12,0,.08.08,0,0,1,0,.08v4.15l.44-.26a.08.08,0,0,1,.1,0,.54.54,0,0,1,0,.22v.11a.81.81,0,0,1,0,.25.27.27,0,0,1-.1.13l-1.56.9S117.51,110.79,117.5,110.75Z" style="fill:#455a64"></path><path d="M120,109.21a.68.68,0,0,1-.34-.42,3,3,0,0,1-.13-1,6.14,6.14,0,0,1,.31-2,5.83,5.83,0,0,1,.66-1.43,2.3,2.3,0,0,1,.49-.62c.07,0,.12,0,.15.1a.89.89,0,0,1,.06.3.19.19,0,0,1,0,.08.16.16,0,0,1,0,.07,3.82,3.82,0,0,0-.61,1,4.47,4.47,0,0,0-.33,1.15,1.35,1.35,0,0,1,.43-.43.42.42,0,0,1,.36,0,.49.49,0,0,1,.29.32,2,2,0,0,1,.12.77,3.52,3.52,0,0,1-.13,1,2.2,2.2,0,0,1-.35.72,1.36,1.36,0,0,1-.46.44A.55.55,0,0,1,120,109.21Zm.74-1.17a1.9,1.9,0,0,0,.11-.66.84.84,0,0,0-.12-.52.19.19,0,0,0-.28,0,.91.91,0,0,0-.31.33c0,.1,0,.23,0,.41a1.84,1.84,0,0,0,.1.76c.06.12.15.16.25.1A.8.8,0,0,0,120.78,108Z" style="fill:#455a64"></path><path d="M122,108.16c-.2,0-.29,0-.29-.21a1.13,1.13,0,0,1,.07-.34c0-.15.09-.24.13-.26s0,0,.11,0a.58.58,0,0,0,.22,0,.52.52,0,0,0,.24-.08,1,1,0,0,0,.36-.41,1.42,1.42,0,0,0,.14-.68c0-.28,0-.45-.14-.53s-.23-.06-.42,0l-.17.1a.06.06,0,0,1-.1,0,.45.45,0,0,1,0-.21v-.11a.81.81,0,0,1,0-.25.23.23,0,0,1,.1-.13l.13-.08a.83.83,0,0,0,.37-.43,1.31,1.31,0,0,0,.13-.57.59.59,0,0,0-.1-.39c-.06-.07-.17-.07-.3,0a.8.8,0,0,0-.22.17l-.16.2-.09.12s-.08,0-.13-.1a.56.56,0,0,1-.08-.26.72.72,0,0,1,.25-.48,2.31,2.31,0,0,1,.54-.45c.27-.16.49-.17.65,0a1,1,0,0,1,.23.77,2.12,2.12,0,0,1-.12.71,2.08,2.08,0,0,1-.32.59v0a.42.42,0,0,1,.4.24,1.49,1.49,0,0,1,.15.74,2.73,2.73,0,0,1-.13.87,2.4,2.4,0,0,1-.34.72,1.61,1.61,0,0,1-.51.47A1.4,1.4,0,0,1,122,108.16Z" style="fill:#455a64"></path></g></g><path d="M51.94,104.74a.18.18,0,0,1,.25,0,.43.43,0,0,1,.11.32V118.3a1.06,1.06,0,0,1-.11.45.62.62,0,0,1-.25.31l-1.08.62a.19.19,0,0,1-.25,0,.45.45,0,0,1-.11-.33v-5.4l-4,2.32v5.4a1.06,1.06,0,0,1-.11.45.67.67,0,0,1-.25.31l-1.08.62a.21.21,0,0,1-.25,0,.43.43,0,0,1-.11-.34V109.47a1.06,1.06,0,0,1,.11-.45.65.65,0,0,1,.25-.3l1.08-.63a.19.19,0,0,1,.25,0,.45.45,0,0,1,.11.33v5.26l4-2.32v-5.26a1.06,1.06,0,0,1,.11-.45.67.67,0,0,1,.25-.31Z" style="fill:#fafafa"></path><path d="M53.9,112.61a11.78,11.78,0,0,1,.23-2.29,10.89,10.89,0,0,1,.65-2.14,8.47,8.47,0,0,1,1-1.77,4.64,4.64,0,0,1,1.35-1.21,2.33,2.33,0,0,1,1.35-.36,1.67,1.67,0,0,1,1,.53,3.28,3.28,0,0,1,.66,1.28,7.07,7.07,0,0,1,.23,1.86v.92a.93.93,0,0,1-.11.45.62.62,0,0,1-.25.31l-4.44,2.57a1.77,1.77,0,0,0,.13.75.83.83,0,0,0,.34.41.72.72,0,0,0,.49.08,1.5,1.5,0,0,0,.57-.2,3,3,0,0,0,1.13-1.13q.15-.24.24-.36a1.07,1.07,0,0,1,.25-.21l1.07-.61a.21.21,0,0,1,.26,0,.42.42,0,0,1,.09.34,3.28,3.28,0,0,1-.2.85,6.57,6.57,0,0,1-.58,1.21,7.9,7.9,0,0,1-1,1.29,5.17,5.17,0,0,1-1.31,1.06,2.29,2.29,0,0,1-1.35.38,1.48,1.48,0,0,1-1-.54,3.37,3.37,0,0,1-.65-1.37A8.61,8.61,0,0,1,53.9,112.61Zm3.26-5a2.51,2.51,0,0,0-.66.55,3.83,3.83,0,0,0-.46.72,4.26,4.26,0,0,0-.28.78,4.31,4.31,0,0,0-.13.71l3-1.73c0-.2-.06-.39-.1-.59a1,1,0,0,0-.24-.47.63.63,0,0,0-.44-.2A1.29,1.29,0,0,0,57.16,107.66Z" style="fill:#fafafa"></path><path d="M61.88,105.3a5.29,5.29,0,0,1,.25-1.06,6.87,6.87,0,0,1,.54-1.24,6.47,6.47,0,0,1,.86-1.2,4.83,4.83,0,0,1,1.19-1,2.89,2.89,0,0,1,1.23-.43,1.3,1.3,0,0,1,.93.26,1.93,1.93,0,0,1,.61,1,5.93,5.93,0,0,1,.21,1.72v6a1.06,1.06,0,0,1-.11.45.67.67,0,0,1-.25.31l-1,.58a.18.18,0,0,1-.25,0,.41.41,0,0,1-.11-.32v-.68a6,6,0,0,1-.8,1.48,4.27,4.27,0,0,1-1.34,1.19,2.42,2.42,0,0,1-1,.36,1.1,1.1,0,0,1-.76-.23,1.66,1.66,0,0,1-.47-.74,3.75,3.75,0,0,1-.17-1.19,5.16,5.16,0,0,1,.66-2.58,7.33,7.33,0,0,1,1.74-2.09L66,104.11c0-.56-.12-.89-.36-1a1,1,0,0,0-.89.16,1.92,1.92,0,0,0-.52.44,4.13,4.13,0,0,0-.35.6,2.18,2.18,0,0,1-.22.35,1,1,0,0,1-.22.19l-1.24.71a.17.17,0,0,1-.22,0C61.88,105.55,61.86,105.45,61.88,105.3Zm2.22,4.49a3,3,0,0,0,.8-.66,3.86,3.86,0,0,0,.59-.86,4.4,4.4,0,0,0,.36-1,3.66,3.66,0,0,0,.12-.9v-.21l-1.8,1.54a3.24,3.24,0,0,0-.79.87,1.74,1.74,0,0,0-.24.88c0,.29.1.45.29.47A1,1,0,0,0,64.1,109.79Z" style="fill:#fafafa"></path><path d="M72.7,98.89a2.73,2.73,0,0,0-1.15,1.21,4.57,4.57,0,0,0-.35,2v5.32a1.06,1.06,0,0,1-.11.45.68.68,0,0,1-.25.31l-1,.58a.2.2,0,0,1-.26,0,.45.45,0,0,1-.1-.33V98.85a1.08,1.08,0,0,1,.1-.45.75.75,0,0,1,.26-.31l1-.58a.2.2,0,0,1,.25,0,.45.45,0,0,1,.11.33v.47a6.94,6.94,0,0,1,.73-1.19,3.86,3.86,0,0,1,1-.86l.6-.34a.18.18,0,0,1,.25,0,.38.38,0,0,1,.11.32v1.35a.93.93,0,0,1-.11.45.62.62,0,0,1-.25.31Z" style="fill:#fafafa"></path><path d="M77.35,100.55a1.33,1.33,0,0,0,.22.88c.15.17.42.14.82-.09l.81-.47a.18.18,0,0,1,.25,0,.44.44,0,0,1,.11.33v1.34a1.07,1.07,0,0,1-.11.46.65.65,0,0,1-.25.3l-1,.57q-1.24.72-1.92.18a3.23,3.23,0,0,1-.67-2.47V97.21l-.88.5a.18.18,0,0,1-.25,0,.42.42,0,0,1-.1-.32V96a1.12,1.12,0,0,1,.1-.45.65.65,0,0,1,.25-.3l.88-.51V91.41a1.06,1.06,0,0,1,.11-.45.67.67,0,0,1,.25-.31l1-.58a.18.18,0,0,1,.25,0,.45.45,0,0,1,.11.33v3.33l1.71-1a.21.21,0,0,1,.26,0,.45.45,0,0,1,.1.33v1.35a1,1,0,0,1-.1.45.68.68,0,0,1-.26.31l-1.71,1Z" style="fill:#fafafa"></path><path d="M87.12,90.57A2.76,2.76,0,0,0,86,91.77a4.62,4.62,0,0,0-.35,2v5.32a1.06,1.06,0,0,1-.11.45.74.74,0,0,1-.25.31l-1,.58a.2.2,0,0,1-.26,0,.44.44,0,0,1-.1-.33V90.53a1,1,0,0,1,.1-.45.75.75,0,0,1,.26-.31l1-.58a.2.2,0,0,1,.25,0,.45.45,0,0,1,.11.33V90a6.83,6.83,0,0,1,.73-1.18,3.52,3.52,0,0,1,1-.86l.6-.35a.19.19,0,0,1,.25,0,.41.41,0,0,1,.11.33v1.35a.93.93,0,0,1-.11.45.67.67,0,0,1-.25.31Z" style="fill:#fafafa"></path><path d="M89.34,89.45a5.06,5.06,0,0,1,.24-1.06,6.37,6.37,0,0,1,.55-1.24A6.47,6.47,0,0,1,91,86a4.86,4.86,0,0,1,1.19-1,3,3,0,0,1,1.22-.43,1.36,1.36,0,0,1,.94.27,2.08,2.08,0,0,1,.61,1,6.05,6.05,0,0,1,.21,1.73v6a1.06,1.06,0,0,1-.11.45.67.67,0,0,1-.25.31l-1,.58a.18.18,0,0,1-.25,0,.44.44,0,0,1-.11-.33v-.67a6.3,6.3,0,0,1-.8,1.48,4.27,4.27,0,0,1-1.34,1.19,2.26,2.26,0,0,1-1,.35,1.08,1.08,0,0,1-.76-.22,1.64,1.64,0,0,1-.47-.75,3.64,3.64,0,0,1-.17-1.18,5.26,5.26,0,0,1,.65-2.58,7.52,7.52,0,0,1,1.74-2.09l2.17-1.83c0-.56-.12-.88-.36-1a1,1,0,0,0-.89.17,1.92,1.92,0,0,0-.52.44,5.28,5.28,0,0,0-.36.6,2,2,0,0,1-.22.35.93.93,0,0,1-.21.19l-1.24.71a.21.21,0,0,1-.23,0C89.34,89.69,89.32,89.6,89.34,89.45Zm2.22,4.49a3.17,3.17,0,0,0,.8-.66,4.11,4.11,0,0,0,.59-.86,4.4,4.4,0,0,0,.36-1,3.74,3.74,0,0,0,.12-.91v-.2l-1.81,1.53a3.54,3.54,0,0,0-.78.88,1.71,1.71,0,0,0-.24.88c0,.29.09.44.29.47A1,1,0,0,0,91.56,93.94Z" style="fill:#fafafa"></path><path d="M99.2,87.93a1.36,1.36,0,0,0,.22.89c.15.16.42.13.82-.1l.81-.46a.2.2,0,0,1,.25,0,.45.45,0,0,1,.1.33V90a1,1,0,0,1-.1.45.74.74,0,0,1-.25.31l-1,.57q-1.25.72-1.92.18c-.45-.37-.67-1.19-.67-2.47v-4.4l-.88.51a.2.2,0,0,1-.25,0,.45.45,0,0,1-.1-.33V83.4a1,1,0,0,1,.1-.45.74.74,0,0,1,.25-.31l.88-.51V78.8a1.06,1.06,0,0,1,.11-.45.67.67,0,0,1,.25-.31l1-.58a.19.19,0,0,1,.25,0,.45.45,0,0,1,.11.33v3.34l1.71-1a.21.21,0,0,1,.26,0,.45.45,0,0,1,.1.33v1.35a1,1,0,0,1-.1.45.64.64,0,0,1-.26.31l-1.71,1Z" style="fill:#fafafa"></path><path d="M102.36,84.63a11.86,11.86,0,0,1,.23-2.29,10.79,10.79,0,0,1,.65-2.13,7.9,7.9,0,0,1,1-1.78,4.46,4.46,0,0,1,1.35-1.2,2.16,2.16,0,0,1,1.35-.36,1.59,1.59,0,0,1,1,.53,3.16,3.16,0,0,1,.66,1.27,7.09,7.09,0,0,1,.23,1.87v.92a1.06,1.06,0,0,1-.11.45.67.67,0,0,1-.25.31l-4.44,2.56a1.77,1.77,0,0,0,.13.75.75.75,0,0,0,.83.5,1.81,1.81,0,0,0,.57-.21,3,3,0,0,0,.69-.53,3.35,3.35,0,0,0,.44-.59,4.09,4.09,0,0,1,.24-.37.88.88,0,0,1,.25-.2l1.06-.62a.21.21,0,0,1,.26,0,.36.36,0,0,1,.1.33,3.76,3.76,0,0,1-.2.85,7.35,7.35,0,0,1-.58,1.22,9,9,0,0,1-.95,1.28,5.39,5.39,0,0,1-1.31,1.07,2.35,2.35,0,0,1-1.35.37,1.46,1.46,0,0,1-1-.54,3.3,3.3,0,0,1-.65-1.37A8.61,8.61,0,0,1,102.36,84.63Zm3.26-4.95a2.36,2.36,0,0,0-.66.55,4.19,4.19,0,0,0-.46.72,4.06,4.06,0,0,0-.28.78,4.24,4.24,0,0,0-.13.72l3-1.74a2.94,2.94,0,0,0-.1-.58,1,1,0,0,0-.23-.48.65.65,0,0,0-.44-.2A1.36,1.36,0,0,0,105.62,79.68Z" style="fill:#fafafa"></path><g id="freepik--Heart--inject-5"><path d="M118.91,82h0l-1-.4a9.49,9.49,0,0,1-2.84-1.51,5.85,5.85,0,0,1-2.37-5.18,9.05,9.05,0,0,1,.84-3.65l0,0a6.19,6.19,0,0,1,2.24-2.83c1.71-1.13,2.44-.26,2.93.75l.2.42.21-.66A6.27,6.27,0,0,1,122,64.79a1.72,1.72,0,0,1,2.25.23v0a3.9,3.9,0,0,1,.85,2.67,17.48,17.48,0,0,1-2.38,7.93,49.43,49.43,0,0,1-2.84,4.78l-1,1.58Z" style="fill:#8384F6"></path></g><path d="M133.57,71.26a1.35,1.35,0,0,1-.06-.49v-.24a2.19,2.19,0,0,1,.06-.58.44.44,0,0,1,.21-.28L135,69V61.14l-1.28,1c-.11.06-.18,0-.23-.26a4.47,4.47,0,0,1-.07-.76.69.69,0,0,1,.25-.54l2.27-2a.32.32,0,0,1,.25,0,.17.17,0,0,1,.14.18v9.41l1-.57c.1-.06.17,0,.22,0a1.28,1.28,0,0,1,.06.49v.25a2.05,2.05,0,0,1-.06.57.48.48,0,0,1-.22.29l-3.55,2C133.68,71.37,133.61,71.35,133.57,71.26Z" style="fill:#455a64"></path><path d="M138.83,68.19c-.44,0-.66-.12-.66-.49a2.85,2.85,0,0,1,.17-.77,1.25,1.25,0,0,1,.3-.59.38.38,0,0,1,.24,0,3.61,3.61,0,0,0,.52,0,1.3,1.3,0,0,0,.54-.19,2.21,2.21,0,0,0,.81-.93,3.32,3.32,0,0,0,.33-1.55c0-.63-.11-1-.32-1.2s-.53-.13-1,.12l-.39.22c-.1.06-.17,0-.22,0a1.32,1.32,0,0,1-.07-.5v-.25a2,2,0,0,1,.07-.57.52.52,0,0,1,.22-.29l.3-.18a2,2,0,0,0,.84-1,3.14,3.14,0,0,0,.29-1.31,1.35,1.35,0,0,0-.22-.88c-.15-.17-.38-.17-.69,0a2.14,2.14,0,0,0-.51.39,3.73,3.73,0,0,0-.35.46,1.51,1.51,0,0,1-.21.27c-.09.05-.18,0-.3-.23a1.22,1.22,0,0,1-.16-.59,1.76,1.76,0,0,1,.54-1.1,5.19,5.19,0,0,1,1.24-1q.93-.52,1.47-.09a2.22,2.22,0,0,1,.54,1.75,4.82,4.82,0,0,1-.28,1.61,4.63,4.63,0,0,1-.74,1.35v.06a1,1,0,0,1,.92.55,3.31,3.31,0,0,1,.34,1.67,6.79,6.79,0,0,1-.29,2,5.48,5.48,0,0,1-.78,1.63,3.73,3.73,0,0,1-1.15,1.07A3.36,3.36,0,0,1,138.83,68.19Z" style="fill:#455a64"></path><path d="M144,65.37a1,1,0,0,1-.66,0,.4.4,0,0,1-.24-.4,2.94,2.94,0,0,1,.19-.79c.12-.37.23-.58.32-.63a.68.68,0,0,1,.24,0,1.16,1.16,0,0,0,.46,0,1.52,1.52,0,0,0,.58-.21,2,2,0,0,0,.76-.95,3.91,3.91,0,0,0,.29-1.58c0-1.3-.42-1.7-1.26-1.22l-.93.54c-.14.08-.23.08-.28,0a.74.74,0,0,1-.08-.42l.2-4.89a1.18,1.18,0,0,1,.11-.52A.72.72,0,0,1,144,54l2.76-1.59c.1-.06.16,0,.21,0A1.31,1.31,0,0,1,147,53v.35a1.59,1.59,0,0,1-.06.49.5.5,0,0,1-.21.26l-1.94,1.11L144.7,58l.26-.15c1.56-.9,2.33-.15,2.33,2.23a6.34,6.34,0,0,1-.69,3.14A4.64,4.64,0,0,1,144.93,65,3.26,3.26,0,0,1,144,65.37Z" style="fill:#455a64"></path><path d="M150.09,61.45a2.29,2.29,0,0,1-.35-1.53V50.31a.94.94,0,0,1,.56-.78l.22-.12c.37-.22.55-.17.55.13v9.59a.93.93,0,0,0,.08.47c0,.08.12.08.22,0l.15-.12.13-.11c.07,0,.14.05.19.27a2.93,2.93,0,0,1,.08.62,1,1,0,0,1-.28.66,2.32,2.32,0,0,1-.62.52C150.63,61.69,150.32,61.69,150.09,61.45Z" style="fill:#455a64"></path><path d="M152.62,63.33V54.65a14.33,14.33,0,0,0-.06-1.58c0-.31-.06-.5-.06-.58a.89.89,0,0,1,.36-.56,3.89,3.89,0,0,1,.62-.48c.13-.07.22,0,.27.11a4.85,4.85,0,0,1,.13.68,4.61,4.61,0,0,1,.49-1.12,2,2,0,0,1,.67-.7.67.67,0,0,1,.85,0,2.23,2.23,0,0,1,.57,1.19,10.53,10.53,0,0,1,.2,2.24,11.15,11.15,0,0,1-.47,3.47,3.26,3.26,0,0,1-1.28,1.87.73.73,0,0,1-.95,0v3.36a.94.94,0,0,1-.56.8l-.24.13Q152.62,63.8,152.62,63.33Zm2.49-6.52a9.16,9.16,0,0,0,.19-2.16c0-1.79-.22-2.56-.67-2.3a2,2,0,0,0-.67,1.2v4.16a.43.43,0,0,0,.59.07A1.47,1.47,0,0,0,155.11,56.81Z" style="fill:#455a64"></path><path d="M163.77,46a2.75,2.75,0,0,1,.32,1.6v5.79a.89.89,0,0,1-.54.78l-.26.16c-.36.2-.54.15-.54-.16V48.76a1.62,1.62,0,0,0-.12-.74c-.08-.13-.21-.15-.39-.05a1.21,1.21,0,0,0-.37.4,3.65,3.65,0,0,0-.29.63v5.82a.89.89,0,0,1-.54.78l-.27.16c-.36.21-.54.16-.54-.16V50.22a1.6,1.6,0,0,0-.12-.74c-.08-.14-.21-.16-.39,0a1,1,0,0,0-.4.46,3.27,3.27,0,0,0-.26.65v5.74a.71.71,0,0,1-.14.43,1.08,1.08,0,0,1-.4.35l-.28.16c-.35.2-.52.15-.52-.17V51.69a14.08,14.08,0,0,0-.06-1.58c0-.31,0-.48,0-.54A.9.9,0,0,1,158,49a4.06,4.06,0,0,1,.64-.49c.12-.07.2-.05.25,0a1.29,1.29,0,0,1,.08.41c0,.17,0,.31.05.41a5.9,5.9,0,0,1,.58-1.21,2.43,2.43,0,0,1,.77-.79.77.77,0,0,1,.71-.11.83.83,0,0,1,.41.63,5.77,5.77,0,0,1,.6-1.19,2.52,2.52,0,0,1,.81-.79C163.25,45.68,163.56,45.71,163.77,46Z" style="fill:#455a64"></path></g><g id="freepik--line--inject-5"><path d="M268.47,130.83H231.61a.65.65,0,0,1-.19,0L184.27,110.6A.49.49,0,0,1,184,110a.51.51,0,0,1,.66-.27l47.05,20.15h36.75a.5.5,0,0,1,.5.5A.5.5,0,0,1,268.47,130.83Z" style="fill:#8384F6"></path><path d="M271,130.33a2.54,2.54,0,1,1-2.54-2.54A2.54,2.54,0,0,1,271,130.33Z" style="fill:#8384F6"></path></g></g></g></svg>